<svg version="1.1" id="Layer_1" xmlns="http://www.w3.org/2000/svg" xmlns:xlink="http://www.w3.org/1999/xlink" x="0px" y="0px"
	 width="100%" viewBox="0 0 96 96" enable-background="new 0 0 96 96" xml:space="preserve">
<path fill="#292929" opacity="1.000000" stroke="none" 
	d="
M71.212189,96.784660 
	C59.979107,97.000000 48.958210,97.000000 37.468658,97.000000 
	C34.996925,94.583595 34.061035,91.672058 33.044670,88.385101 
	C31.733309,83.747101 31.387985,79.298546 30.354115,74.986877 
	C29.855782,72.908600 29.457619,70.720039 26.499783,70.005432 
	C25.478882,69.454544 24.937025,68.917137 24.270512,67.965195 
	C23.721554,66.951942 23.528940,66.206863 23.109303,65.149796 
	C22.306850,61.782665 22.946375,58.439381 20.555025,55.485332 
	C20.051981,54.466476 19.902645,53.732105 19.867109,52.596779 
	C20.011786,50.978577 20.486303,49.841026 21.136410,48.394768 
	C22.518082,46.997665 23.122002,45.544102 23.975918,43.847050 
	C24.859270,43.231064 25.540638,43.137856 26.589024,43.392307 
	C28.580019,44.575478 28.130165,47.110695 30.320713,48.215538 
	C32.822041,51.271564 34.401989,54.559189 37.030338,57.554897 
	C38.116512,59.979153 39.110935,62.046207 39.397423,64.731499 
	C40.320541,70.313141 40.725323,75.548615 40.455536,80.838623 
	C40.380352,82.312790 40.415947,83.893929 42.674000,84.462524 
	C46.206272,84.344452 49.336155,85.612816 52.882881,84.705276 
	C57.204159,84.201248 60.009087,81.381721 63.718178,79.654762 
	C66.935532,80.576836 66.592873,83.664337 68.404327,85.988091 
	C68.232552,83.652214 68.152184,81.559898 70.737358,80.465271 
	C71.554268,80.294518 72.028175,80.331619 72.823883,80.606316 
	C75.280457,84.350914 80.275818,83.574554 82.717018,87.251236 
	C83.209251,91.475533 86.710976,90.517387 89.213379,91.756790 
	C89.913300,92.656570 90.109207,93.383499 90.153191,94.547836 
	C90.031113,95.470032 89.819382,95.949516 89.249733,96.690613 
	C86.299988,97.000000 83.599968,97.000000 80.449982,97.000000 
	C78.871185,95.902977 77.467690,95.083282 76.569115,93.391891 
	C76.883232,94.643013 77.004349,95.600784 76.223846,96.755676 
	C75.250000,97.000000 74.500000,97.000000 73.375000,97.000000 
	C72.574677,96.491005 72.064682,96.291786 71.212189,96.784660 
z"/>
<path fill="#ABABAB" opacity="1.000000" stroke="none" 
	d="
M96.744308,62.720078 
	C97.000000,67.689255 97.000000,72.378510 97.000000,77.533882 
	C96.226204,78.784447 94.992813,79.140694 94.392670,78.439598 
	C91.320908,74.851135 89.534355,77.880142 87.094681,79.695061 
	C85.600182,79.857224 84.672829,79.435051 83.649933,78.309021 
	C82.870270,76.956253 82.776245,75.860443 82.904266,74.329071 
	C84.152397,69.951118 85.248451,65.991432 84.585243,61.744240 
	C84.303421,59.939415 84.699638,58.123493 85.531822,56.436508 
	C89.580467,48.229225 87.452408,39.767590 86.366959,30.995495 
	C86.010605,30.130898 85.866600,29.616768 85.702148,28.696682 
	C85.580795,27.238630 85.419868,26.194983 84.925842,24.806320 
	C84.418938,21.989077 84.259560,19.566305 85.129265,16.803238 
	C85.464371,16.252041 85.631866,16.057903 86.161728,15.758842 
	C89.662056,16.750963 88.950279,20.431465 91.096954,22.422970 
	C94.264297,21.783974 92.636009,16.566477 96.724174,16.784216 
	C97.000000,22.022093 97.000000,27.044184 97.000000,32.533138 
	C94.112419,42.766186 92.563164,52.555618 96.744308,62.720078 
z"/>
<path fill="#EEEEEE" opacity="1.000000" stroke="none" 
	d="
M60.739014,1.330459 
	C67.021156,1.000000 73.042305,1.000000 79.531731,1.000000 
	C81.595169,2.732861 81.705795,4.856696 81.551788,7.486826 
	C81.570518,11.149196 82.016510,14.377291 81.054085,17.952660 
	C74.623055,22.996038 70.013039,21.645140 67.722488,14.351295 
	C67.247787,13.964810 67.074051,13.792436 66.719650,13.304673 
	C66.522583,12.562267 66.513573,12.135384 66.536194,11.708033 
	C66.537186,11.689320 66.381767,11.848405 65.916092,12.379824 
	C64.550346,12.825477 63.669506,12.417961 62.537125,11.598080 
	C61.553043,10.566241 60.819698,9.814977 60.121162,8.527786 
	C59.380970,5.928864 59.167221,3.733274 60.739014,1.330459 
z"/>
<path fill="#2D2D2D" opacity="1.000000" stroke="none" 
	d="
M25.767365,69.276291 
	C29.401545,68.378227 31.129505,69.776230 31.613760,73.214630 
	C32.271458,77.884560 33.190582,82.517662 33.998959,87.586601 
	C33.448410,90.838875 35.511002,93.522026 34.238953,96.690849 
	C32.933331,97.000000 31.866661,97.000000 30.399996,97.000000 
	C28.830664,95.965042 28.671465,94.543762 28.516739,93.063408 
	C28.286076,94.278748 28.288584,95.509132 27.234726,96.741852 
	C25.933331,97.000000 24.866661,97.000000 23.399996,97.000000 
	C20.541178,90.138939 20.979454,83.263252 23.091934,76.022011 
	C25.010029,73.986748 25.443197,71.837189 25.767365,69.276291 
z"/>
<path fill="#EEEEEE" opacity="1.000000" stroke="none" 
	d="
M17.702766,1.371708 
	C22.689257,1.000000 27.378511,1.000000 32.533882,1.000000 
	C35.143963,2.768019 35.939610,4.967937 35.048897,8.005721 
	C34.872395,8.540549 34.786457,8.748687 34.533890,9.248615 
	C33.002174,11.074501 32.558842,13.022491 31.806421,15.207685 
	C31.373024,15.891163 31.022820,16.185949 30.273586,16.482124 
	C29.708883,16.516111 29.484190,16.480412 28.974131,16.266329 
	C28.415840,15.479708 28.676922,16.308056 28.408821,15.698674 
	C28.214348,15.256640 28.195890,14.460361 28.018883,14.397502 
	C27.467527,14.201704 27.672405,15.022664 27.029106,15.452265 
	C24.863567,16.738073 22.689959,16.977289 20.274355,17.824375 
	C17.848698,17.637651 16.729582,16.324444 16.699337,14.545030 
	C16.626696,10.271259 15.663918,5.922397 17.702766,1.371708 
z"/>
<path fill="#D7D7D7" opacity="1.000000" stroke="none" 
	d="
M17.625000,1.000000 
	C18.000074,5.115751 17.989197,9.231546 18.005634,13.347232 
	C18.012175,14.984411 17.777843,16.804691 20.629524,16.999552 
	C23.294451,18.918404 20.362535,19.794691 20.031292,21.540842 
	C19.275595,22.694262 18.856424,23.642242 17.730801,24.553905 
	C16.084751,25.406233 14.696553,25.556068 12.830830,25.495422 
	C8.785044,25.733385 5.169243,26.052736 1.356886,24.283438 
	C1.000000,21.958334 1.000000,19.916666 1.000000,17.437500 
	C3.487910,14.932996 6.518479,17.384218 9.451927,15.963711 
	C12.499097,16.057457 13.754422,14.909405 13.553653,12.109520 
	C13.412717,10.144055 13.503732,8.157317 13.548988,5.803647 
	C13.455326,4.063276 13.667631,2.775126 14.746763,1.320448 
	C15.750000,1.000000 16.500000,1.000000 17.625000,1.000000 
z"/>
<path fill="#A3A3A3" opacity="1.000000" stroke="none" 
	d="
M97.000000,16.539364 
	C94.025764,17.561188 95.099831,20.428326 94.174835,22.144495 
	C93.441582,23.504936 92.991913,24.840355 91.194038,24.893055 
	C89.043053,24.956102 89.183556,23.233938 88.788773,21.859718 
	C88.293648,20.136244 87.662743,18.451780 87.037827,16.371178 
	C86.658257,15.623730 86.346947,15.242797 85.896011,14.512909 
	C85.454208,12.977195 84.982590,11.824650 84.797607,10.220877 
	C84.753304,9.108029 84.886459,8.391107 85.338257,7.394948 
	C85.644104,6.987707 85.830635,6.769551 85.888474,6.799550 
	C90.033653,8.949342 93.275940,6.844478 96.742203,4.786014 
	C97.000000,8.692909 97.000000,12.385818 97.000000,16.539364 
z"/>
<path fill="#333333" opacity="1.000000" stroke="none" 
	d="
M6.231654,96.766197 
	C4.933331,97.000000 3.866661,97.000000 2.399996,97.000000 
	C1.244613,94.527138 2.212384,92.166901 2.509449,89.390114 
	C2.607909,88.277145 2.710048,87.541328 3.046248,86.475945 
	C4.802624,83.327316 7.254097,81.356842 10.148891,79.330719 
	C11.076306,78.775749 11.739374,78.527954 12.792961,78.443817 
	C15.015420,79.282860 14.822393,80.637321 13.937363,82.359741 
	C13.800778,82.585243 13.564974,83.000198 13.806164,82.901062 
	C14.423622,82.678406 14.804506,82.680168 15.477220,82.920258 
	C18.229437,85.073006 17.952047,87.192345 16.013245,89.340599 
	C14.601908,90.904404 13.369858,92.623657 11.582577,94.311569 
	C9.853729,95.583244 7.734339,95.035088 6.231654,96.766197 
z"/>
<path fill="#404040" opacity="1.000000" stroke="none" 
	d="
M83.771484,77.923294 
	C84.757561,78.147583 85.460403,78.582092 86.464615,79.089813 
	C91.905228,80.958778 94.176277,85.041397 95.403778,90.344757 
	C95.202667,92.720009 96.357094,94.476112 96.222427,96.711578 
	C95.250000,97.000000 94.500000,97.000000 93.375000,97.000000 
	C90.976189,95.472076 91.085526,92.502808 88.646759,90.926376 
	C86.335304,90.165260 84.121742,90.065735 82.295502,88.180000 
	C80.900284,85.758003 78.531906,85.835411 76.651398,85.047356 
	C75.013908,84.361145 73.124054,84.079422 73.209633,81.168961 
	C74.658546,80.045898 75.962662,80.486893 77.552826,80.291046 
	C78.544167,80.406845 79.204132,80.590942 79.684074,81.032150 
	C82.221107,83.364433 83.003853,82.276115 83.025620,79.077454 
	C83.248047,78.537811 83.368149,78.335655 83.771484,77.923294 
z"/>
<path fill="#2D2D2D" opacity="1.000000" stroke="none" 
	d="
M10.762096,94.344872 
	C11.863518,91.821068 13.185595,89.923798 15.030724,88.513588 
	C17.246128,86.820381 16.459442,85.274216 15.044098,83.308075 
	C14.563415,80.179344 16.034739,78.978401 18.604382,78.980392 
	C21.126879,78.982346 22.022703,80.622864 21.957560,82.907547 
	C21.831398,87.332352 22.480072,91.781723 21.273750,96.590599 
	C17.969406,97.000000 14.938813,97.000000 11.454110,97.000000 
	C10.421782,96.315125 10.268470,95.543495 10.762096,94.344872 
z"/>
<path fill="#424242" opacity="1.000000" stroke="none" 
	d="
M21.333332,97.000000 
	C20.998550,92.704384 21.038982,88.408104 20.971611,84.113518 
	C20.949751,82.719940 21.539303,80.921204 19.670250,80.238075 
	C17.640976,79.496407 16.146975,80.328087 15.148531,82.649895 
	C14.497698,83.249718 14.005116,83.513626 13.257221,83.889656 
	C12.544606,82.386589 14.243320,80.905220 13.026569,79.051071 
	C12.840577,75.416786 16.970957,75.972847 18.212452,73.234871 
	C19.383324,71.880508 20.631876,70.977852 21.018301,69.090462 
	C21.471024,67.731171 21.733072,66.648911 22.413944,65.363602 
	C22.808893,64.965225 23.005606,64.847305 23.521847,64.856888 
	C24.202288,65.447067 24.563204,65.909752 24.952560,66.681030 
	C24.347620,69.423874 25.949732,71.833199 25.015369,74.637650 
	C21.544128,81.765907 23.550392,89.033943 23.001007,96.531708 
	C22.555555,97.000000 22.111111,97.000000 21.333332,97.000000 
z"/>
<path fill="#D7D7D7" opacity="1.000000" stroke="none" 
	d="
M1.309143,39.249763 
	C1.000000,35.969406 1.000000,32.938812 1.000000,29.454109 
	C1.348706,28.672436 1.757531,28.479620 2.573536,28.528915 
	C4.151041,29.851940 5.273027,32.874424 7.048709,28.565170 
	C7.390079,28.066654 7.551116,27.880177 8.024887,27.484703 
	C9.565495,26.727955 10.821715,26.698965 12.444418,27.226196 
	C12.977931,27.539764 13.166831,27.697262 13.545861,28.161690 
	C14.243587,29.741844 14.272038,31.110292 13.642408,32.244114 
	C12.145619,34.939491 12.953379,36.769478 15.585783,38.505127 
	C15.628568,42.504490 13.040751,42.297794 10.142975,42.132256 
	C8.499055,41.670338 7.440644,40.837456 5.771057,40.503082 
	C4.049836,40.450542 2.736885,40.351524 1.309143,39.249763 
z"/>
<path fill="#474747" opacity="1.000000" stroke="none" 
	d="
M60.541931,1.000000 
	C61.012718,3.366107 61.025440,5.732214 61.116806,8.534317 
	C61.472141,9.423502 61.587715,9.914742 61.400139,10.804315 
	C60.313087,12.180045 58.997219,12.351127 57.379616,12.775087 
	C55.651649,12.974699 54.422592,12.595071 52.904823,11.787935 
	C51.611546,10.652280 50.357613,10.083144 49.271904,8.690020 
	C48.388290,6.062638 48.126358,3.822608 49.732208,1.339914 
	C53.361286,1.000000 56.722576,1.000000 60.541931,1.000000 
z"/>
<path fill="#B0B0B0" opacity="1.000000" stroke="none" 
	d="
M97.000000,62.531342 
	C92.111885,61.318394 92.450165,56.092594 92.479782,53.112247 
	C92.535782,47.479050 92.615990,41.530376 94.542107,35.988274 
	C94.905289,34.943260 94.919418,33.616344 96.638451,33.076050 
	C97.000000,42.687561 97.000000,52.375122 97.000000,62.531342 
z"/>
<path fill="#5D5D5D" opacity="1.000000" stroke="none" 
	d="
M49.767265,8.746460 
	C51.151367,9.092373 52.411331,8.908522 52.977192,10.706907 
	C52.938126,11.163584 52.825562,11.382395 52.707848,11.385201 
	C45.835014,11.549010 39.497932,14.115559 32.598415,15.609396 
	C31.073328,13.154402 33.346790,11.647593 33.835930,9.394707 
	C34.118217,9.119639 34.113506,8.994023 34.051144,8.986196 
	C38.141724,7.379766 40.395916,3.149324 44.729126,1.212570 
	C45.444447,1.000000 45.888889,1.000000 46.666668,1.000000 
	C49.205811,3.032157 47.917679,6.242238 49.767265,8.746460 
z"/>
<path fill="#A3A3A3" opacity="1.000000" stroke="none" 
	d="
M94.222748,90.778381 
	C93.793282,85.557449 90.029144,82.924156 86.954498,79.441956 
	C87.197006,78.696358 87.812012,78.302368 88.029724,77.751404 
	C89.652000,73.645767 91.467628,72.160683 94.196114,77.013748 
	C94.499001,77.552490 95.552818,77.669037 96.629189,77.990692 
	C97.000000,82.689255 97.000000,87.378510 97.000000,92.533882 
	C95.293076,93.535004 95.060959,91.987282 94.222748,90.778381 
z"/>
<path fill="#9C9C9C" opacity="1.000000" stroke="none" 
	d="
M97.000000,4.500000 
	C96.142090,5.109122 95.481804,5.460232 94.946663,6.210379 
	C91.161697,11.516043 91.148689,11.506765 86.340355,7.053216 
	C85.552902,6.647631 85.217278,6.208159 84.893402,5.270562 
	C84.660545,3.716688 84.778061,2.623099 85.740837,1.328277 
	C88.833336,1.000000 91.722115,1.348322 94.485420,0.908406 
	C97.661942,0.402706 96.951927,2.345620 97.000000,4.500000 
z"/>
<path fill="#B9B9B9" opacity="1.000000" stroke="none" 
	d="
M1.409033,9.314832 
	C1.000003,1.000000 1.000003,1.000000 9.508951,1.000000 
	C12.088760,3.464629 12.174870,6.400750 10.390937,8.680693 
	C8.149916,11.544812 4.839877,10.638045 1.409033,9.314832 
z"/>
<path fill="#ABABAB" opacity="1.000000" stroke="none" 
	d="
M1.000000,9.333334 
	C1.649453,9.001876 2.298904,9.004306 2.948358,9.005540 
	C9.988658,9.018918 9.988658,9.018867 9.994531,1.447700 
	C11.388889,1.000000 12.777778,1.000000 14.583334,1.000000 
	C14.988717,2.371472 14.977434,3.742945 14.954328,5.525739 
	C13.475453,7.113740 13.513505,8.775374 13.411966,10.436193 
	C13.299294,12.279122 12.919835,14.056981 10.799106,15.272668 
	C10.217993,15.469668 9.975567,15.512998 9.368345,15.515123 
	C6.588479,13.995024 4.001629,12.837592 1.261719,11.238409 
	C1.000000,10.555555 1.000000,10.111111 1.000000,9.333334 
z"/>
<path fill="#E6E6E6" opacity="1.000000" stroke="none" 
	d="
M1.271266,54.280373 
	C1.000000,50.969406 1.000000,47.938812 1.000000,44.454109 
	C1.843497,43.241100 2.810235,42.772350 4.374250,42.763466 
	C8.150540,43.367538 7.570237,46.352558 8.333708,48.952179 
	C8.414949,51.280071 8.684743,53.216000 7.780019,55.449890 
	C7.041986,56.502789 6.299312,56.799366 5.050953,56.873108 
	C3.237736,56.597546 2.345476,55.639614 1.271266,54.280373 
z"/>
<path fill="#E6E6E6" opacity="1.000000" stroke="none" 
	d="
M44.539364,1.000000 
	C41.751087,3.889897 40.529251,9.344060 34.386333,9.027145 
	C34.192829,6.479087 34.199642,4.006246 33.006119,1.346745 
	C36.692909,1.000000 40.385818,1.000000 44.539364,1.000000 
z"/>
<path fill="#666666" opacity="1.000000" stroke="none" 
	d="
M1.227219,74.320892 
	C1.000000,69.975456 1.000000,65.950912 1.000000,61.463184 
	C1.851218,60.234875 2.831303,59.909695 4.345109,60.270218 
	C6.247423,61.505024 5.892008,63.206467 6.158417,65.109833 
	C6.576487,68.719604 6.150994,71.755005 3.815583,74.679916 
	C2.751029,75.435410 2.059135,75.328560 1.227219,74.320892 
z"/>
<path fill="#7C7C7C" opacity="1.000000" stroke="none" 
	d="
M13.256407,27.871698 
	C11.658272,28.231596 10.348947,28.257772 8.647158,28.291332 
	C5.957516,28.899332 3.801886,28.323589 1.337616,27.253513 
	C1.000000,26.250000 1.000000,25.500000 1.000000,24.375000 
	C4.649730,24.068287 8.299459,24.136576 12.391665,24.287621 
	C13.946007,25.229858 13.985585,26.330048 13.256407,27.871698 
z"/>
<path fill="#B0B0B0" opacity="1.000000" stroke="none" 
	d="
M85.759964,4.765663 
	C85.989395,5.447210 85.994560,5.889707 86.003830,6.663991 
	C86.004234,7.746480 86.000534,8.497183 85.997192,9.623179 
	C85.813705,10.153634 85.629852,10.308796 85.112427,10.604948 
	C82.831429,11.003826 81.594833,9.904027 80.257439,8.255527 
	C79.985626,5.957540 79.967758,3.915727 79.974945,1.436958 
	C81.066673,1.000000 82.133339,1.000000 83.600006,1.000000 
	C85.203209,1.874499 84.760445,3.465758 85.759964,4.765663 
z"/>
<path fill="#7C7C7C" opacity="1.000000" stroke="none" 
	d="
M1.000000,74.463181 
	C1.582990,74.282219 2.165981,74.564445 3.057939,74.943787 
	C7.227675,78.235695 5.612780,81.947235 4.193994,86.078125 
	C4.003075,87.118950 3.983832,87.705719 3.912463,88.583511 
	C2.400625,89.505699 2.133006,88.123291 1.223899,87.223122 
	C1.000000,82.975456 1.000000,78.950912 1.000000,74.463181 
z"/>
<path fill="#B9B9B9" opacity="1.000000" stroke="none" 
	d="
M1.000000,11.399996 
	C4.253460,10.519385 6.702246,11.984195 8.888708,14.583134 
	C6.629940,16.800364 4.127082,16.281729 1.301603,15.242510 
	C1.000000,13.933331 1.000000,12.866661 1.000000,11.399996 
z"/>
<path fill="#363636" opacity="1.000000" stroke="none" 
	d="
M27.375000,97.000000 
	C26.999828,96.675514 26.938356,96.336906 27.009302,96.028793 
	C27.519300,93.813919 25.831778,89.644386 28.298883,89.709435 
	C31.684568,89.798706 29.295397,93.892807 29.999920,96.558136 
	C29.250000,97.000000 28.500000,97.000000 27.375000,97.000000 
z"/>
<path fill="#9C9C9C" opacity="1.000000" stroke="none" 
	d="
M1.000000,15.333333 
	C3.420789,14.961470 5.841579,14.922938 8.607283,14.906986 
	C9.117963,14.949575 9.283727,14.969585 9.699483,15.004767 
	C10.320168,15.399180 10.477830,15.852512 10.198433,16.681286 
	C7.264449,18.892927 4.516465,17.401623 1.390747,17.037121 
	C1.000000,16.555555 1.000000,16.111111 1.000000,15.333333 
z"/>
<path fill="#7C7C7C" opacity="1.000000" stroke="none" 
	d="
M5.069097,60.855968 
	C3.735574,61.049850 2.740979,61.024273 1.373192,60.999348 
	C1.000000,58.958332 1.000000,56.916668 1.000000,54.437500 
	C2.226250,53.771358 3.103101,54.330070 3.997501,55.525719 
	C4.460049,56.258690 4.839456,56.616428 5.527599,57.213772 
	C6.116654,58.632801 6.036562,59.664444 5.069097,60.855968 
z"/>
<path fill="#404040" opacity="1.000000" stroke="none" 
	d="
M34.375000,97.000000 
	C34.141602,94.225334 31.907562,91.539948 33.844276,88.355164 
	C35.061977,90.719078 36.935810,93.136589 36.990993,96.608887 
	C36.250000,97.000000 35.500000,97.000000 34.375000,97.000000 
z"/>
<path fill="#2D2D2D" opacity="1.000000" stroke="none" 
	d="
M76.399994,97.000000 
	C76.314682,94.550751 73.999596,92.176666 76.081055,88.809120 
	C76.825989,92.096039 78.712357,93.975594 79.954895,96.642555 
	C78.933327,97.000000 77.866661,97.000000 76.399994,97.000000 
z"/>
<path fill="#363636" opacity="1.000000" stroke="none" 
	d="
M50.010139,8.569677 
	C45.976051,7.894986 47.213089,4.559897 46.999214,1.417173 
	C47.750000,1.000000 48.500000,1.000000 49.625000,1.000000 
	C50.002228,3.374657 50.004452,5.749315 50.010139,8.569677 
z"/>
<path fill="#C6C6C6" opacity="1.000000" stroke="none" 
	d="
M5.338929,43.500084 
	C3.991493,43.829948 2.904865,43.898590 1.409119,43.983616 
	C1.000000,42.611111 1.000000,41.222221 1.000000,39.416664 
	C2.412550,39.026974 3.825101,39.053951 5.658389,39.132965 
	C7.145739,40.681316 6.508515,41.976143 5.338929,43.500084 
z"/>
<path fill="#666666" opacity="1.000000" stroke="none" 
	d="
M1.000000,87.486565 
	C2.142418,86.963364 2.820439,87.657921 3.626371,88.696999 
	C3.262900,91.331268 2.665465,93.787994 2.034015,96.622360 
	C-0.354683,94.214966 1.669993,90.944794 1.000000,87.486565 
z"/>
<path fill="#333333" opacity="1.000000" stroke="none" 
	d="
M88.800316,90.300621 
	C92.095810,90.955956 92.366882,93.718056 92.998016,96.626244 
	C92.555557,97.000000 92.111107,97.000000 91.333328,97.000000 
	C90.475060,96.458435 89.935333,95.931519 89.206146,95.194199 
	C89.001968,94.247383 88.998444,93.499878 88.993973,92.378632 
	C88.617302,91.612610 88.483170,91.150230 88.800316,90.300621 
z"/>
<path fill="#363636" opacity="1.000000" stroke="none" 
	d="
M10.592482,94.001488 
	C10.997217,94.751587 10.998145,95.501030 10.999537,96.625244 
	C9.611111,97.000000 8.222222,97.000000 6.416667,97.000000 
	C5.762590,93.718719 8.048671,93.961784 10.592482,94.001488 
z"/>
<path fill="#9C9C9C" opacity="1.000000" stroke="none" 
	d="
M1.000000,27.333332 
	C3.188950,27.182800 5.472387,26.642578 7.890870,28.075844 
	C8.254693,28.298712 8.183585,28.749556 8.131858,28.971825 
	C6.703774,30.136765 5.266939,30.437775 3.345650,29.336407 
	C2.530902,29.047653 2.093722,29.027245 1.328271,29.003418 
	C1.000000,28.555555 1.000000,28.111111 1.000000,27.333332 
z"/>
<path fill="#363636" opacity="1.000000" stroke="none" 
	d="
M94.080963,90.844849 
	C94.880440,91.179192 95.661728,91.922546 96.721512,92.832947 
	C97.000000,94.333336 97.000000,95.666664 96.500000,97.000000 
	C95.995766,94.868347 93.524239,93.568497 94.080963,90.844849 
z"/>
<path fill="#ABABAB" opacity="1.000000" stroke="none" 
	d="
M85.990860,4.604219 
	C83.915192,4.774932 84.011871,3.227958 84.001053,1.372862 
	C84.444443,1.000000 84.888893,1.000000 85.666672,1.000000 
	C85.999161,2.067909 85.998322,3.135818 85.990860,4.604219 
z"/>
<path fill="#2D2D2D" opacity="1.000000" stroke="none" 
	d="
M71.333328,97.000000 
	C71.132408,96.122787 70.693420,94.836075 71.911583,94.616234 
	C73.027496,94.414833 72.834587,95.603508 72.992706,96.661285 
	C72.555557,97.000000 72.111107,97.000000 71.333328,97.000000 
z"/>
<path fill="#2D2D2D" opacity="1.000000" stroke="none" 
	d="
M89.003365,95.329086 
	C89.899437,95.091537 90.670784,95.357658 90.951836,96.684044 
	C90.555557,97.000000 90.111107,97.000000 89.333328,97.000000 
	C89.000412,96.554428 89.000824,96.108864 89.003365,95.329086 
z"/>
<path fill="#333333" opacity="1.000000" stroke="none" 
	d="
M32.086590,14.759129 
	C33.545982,14.784390 34.848385,14.758562 35.676342,14.118759 
	C40.684265,10.248901 46.281528,9.888949 52.621651,11.030457 
	C54.140144,11.344008 55.227192,11.642450 56.654869,11.971565 
	C58.923016,12.611500 59.858074,14.709874 62.142220,15.418011 
	C63.011013,16.070478 63.448750,16.645098 63.964592,17.627163 
	C64.435310,19.702509 65.278198,21.370075 64.592026,23.542343 
	C62.666515,25.344135 61.471203,24.025944 60.298031,22.976349 
	C58.738655,21.581224 57.083683,20.340134 54.925606,19.178787 
	C44.209888,14.335386 38.537083,16.286369 32.592117,26.927753 
	C32.184879,30.375006 33.055748,33.602184 31.204649,36.850445 
	C28.197216,38.395477 28.800825,41.448822 27.281754,43.756706 
	C26.316067,44.013130 25.635078,44.024086 24.325195,43.866737 
	C23.626509,43.478687 23.556715,43.258942 23.475498,42.692719 
	C23.669329,40.965012 23.659410,39.570293 23.748821,37.817127 
	C23.808245,37.210320 23.844141,36.966713 23.963093,36.359398 
	C25.996853,31.685692 25.382084,27.079012 25.646809,22.196592 
	C25.749765,21.583805 25.804842,21.342926 25.994698,20.760471 
	C27.001656,18.978262 28.346863,17.991158 29.846554,16.687962 
	C30.400606,16.257448 30.649832,15.998887 31.047308,15.515234 
	C31.367153,15.001530 31.538748,14.712916 32.086590,14.759129 
z"/>
<path fill="#666666" opacity="1.000000" stroke="none" 
	d="
M54.197750,85.546371 
	C50.570610,87.793549 47.072197,86.078461 43.229095,86.225647 
	C41.577732,81.120285 40.715134,75.983620 40.389366,70.429382 
	C41.086205,69.457382 41.785904,69.198433 42.935020,69.150711 
	C43.945934,69.343208 44.566921,69.609314 44.993008,70.127411 
	C47.821259,73.566391 48.468079,71.710716 48.640305,68.305618 
	C48.666904,67.281731 48.772282,66.607643 48.970436,65.601349 
	C49.302250,64.395485 49.646832,63.556149 50.147339,62.417580 
	C50.428116,61.933495 50.555534,61.749603 50.905468,61.317459 
	C52.258663,60.286316 52.751591,59.016579 53.763115,57.712246 
	C54.427635,57.234894 54.865105,57.057880 55.685310,56.871216 
	C56.544357,56.788609 57.037994,56.822422 57.891907,57.006840 
	C58.477581,57.229435 58.700115,57.347961 59.191246,57.732796 
	C60.411629,59.685081 60.075031,61.355259 59.243851,63.338371 
	C58.846493,64.044563 58.569782,64.407097 57.992046,64.921249 
	C56.626469,65.298386 56.760395,65.748787 57.581444,66.643814 
	C57.703384,67.435310 57.642899,67.897148 57.372360,68.694946 
	C55.677757,72.445412 56.930069,76.170731 56.013714,79.657112 
	C55.521130,81.531227 55.719349,83.591789 54.197750,85.546371 
z"/>
<path fill="#2D2D2D" opacity="1.000000" stroke="none" 
	d="
M56.626133,68.216652 
	C56.838310,67.508621 56.866798,67.094460 56.890182,66.368904 
	C56.730251,65.862656 56.575428,65.667801 56.708538,65.235367 
	C57.111633,64.705811 57.262482,64.433624 57.628830,64.031731 
	C58.805180,63.413971 59.580532,64.050133 59.661636,64.785385 
	C60.108177,68.833656 63.105770,68.863441 66.366867,69.184250 
	C67.056091,69.584351 67.346870,69.918182 67.591553,70.662949 
	C67.730766,71.751526 67.038101,72.254364 66.976463,72.963882 
	C66.918785,73.627686 67.444290,73.675606 67.090805,73.110367 
	C66.737320,72.545128 67.855362,72.380531 67.580597,72.767509 
	C68.670677,73.315460 68.907845,74.109459 69.063530,75.272537 
	C69.140152,76.359474 68.960411,77.185669 69.807854,78.050125 
	C70.655045,78.878677 71.193825,79.541428 71.154541,80.742538 
	C68.213318,82.709946 70.276253,85.173241 69.995140,87.254951 
	C69.866806,88.205315 70.059944,89.455246 68.678551,89.462807 
	C67.823524,89.467499 67.411331,88.594696 67.121796,87.762856 
	C66.267990,85.309868 65.347267,82.880165 64.172104,80.208145 
	C63.435818,79.781403 63.053379,79.426918 62.604832,79.258324 
	C55.383644,76.543991 55.379501,76.546593 56.626133,68.216652 
z"/>
<path fill="#838383" opacity="1.000000" stroke="none" 
	d="
M36.380913,58.187241 
	C33.375237,55.735947 31.958055,52.557980 29.952682,49.375542 
	C28.503153,47.234734 28.358053,45.330563 29.744991,43.047611 
	C30.504421,42.434387 31.017767,42.252716 31.971626,42.230713 
	C33.421249,42.482700 34.099586,43.273491 35.128677,44.162647 
	C36.757736,45.697273 37.166004,48.044529 39.900078,48.236664 
	C40.476753,48.285118 40.709663,48.320396 41.285034,48.467567 
	C42.818001,49.123558 43.620792,50.031651 44.231998,51.593483 
	C44.829845,53.708912 45.441513,55.448811 44.629967,57.644646 
	C44.258488,58.170227 44.068279,58.347443 43.526077,58.686710 
	C42.145687,59.112911 41.175255,58.979488 40.006989,58.176491 
	C39.212639,57.477238 39.621754,56.563129 38.901482,56.203075 
	C38.872555,56.493584 38.816139,56.779350 38.591042,57.359123 
	C37.989288,58.241127 37.394043,58.502895 36.380913,58.187241 
z"/>
<path fill="#626262" opacity="1.000000" stroke="none" 
	d="
M23.857273,64.554382 
	C23.663187,64.980049 23.484999,64.975716 23.039759,64.984192 
	C21.845865,66.161186 20.464989,66.686661 18.925220,67.628052 
	C16.928980,68.204666 15.449594,67.752602 13.713991,66.675461 
	C11.667873,64.659363 11.496761,62.495007 11.884050,59.802864 
	C12.390065,58.054600 13.105980,56.895500 14.433529,55.663994 
	C15.937019,54.728809 17.249058,54.457268 18.968880,54.186855 
	C19.908155,54.177292 20.406292,54.335136 21.212914,54.809982 
	C25.221031,57.304962 23.391666,61.006584 23.857273,64.554382 
z"/>
<path fill="#404040" opacity="1.000000" stroke="none" 
	d="
M71.328400,81.034294 
	C70.527779,80.437256 70.057404,79.840378 69.329765,79.110878 
	C68.183899,78.362976 68.203224,77.479134 68.182945,76.266769 
	C67.852379,75.118057 67.694832,74.258408 67.293983,73.173141 
	C66.890640,72.791206 66.730606,72.634888 66.796539,72.230499 
	C67.017731,71.540863 67.012932,71.099304 66.996635,70.326721 
	C66.455078,69.358589 66.016609,68.672707 65.798569,67.440247 
	C65.783249,65.143204 66.355759,63.326843 66.515945,61.048309 
	C66.383324,58.977081 66.467651,57.337708 67.309753,55.405045 
	C70.688492,52.990078 72.553696,54.866848 73.811790,57.423264 
	C74.823296,59.478611 75.342056,61.783352 75.815613,64.459389 
	C75.799652,65.379662 75.686516,65.884666 75.339600,66.710175 
	C74.844017,67.687126 74.420532,68.278297 73.969681,69.258240 
	C73.382141,70.412971 73.060074,71.315323 72.108459,72.222504 
	C70.758453,72.666328 69.960396,72.399277 69.555389,70.959633 
	C69.702042,69.737671 69.996933,68.905617 70.445374,68.131844 
	C70.490501,68.053963 70.600937,68.013939 70.681061,67.956345 
	C70.414688,68.567482 70.274040,67.440598 70.182800,68.383743 
	C68.465889,72.759506 71.849487,75.218307 73.388382,78.655106 
	C73.609474,79.468735 73.580101,79.942795 73.228149,80.701981 
	C73.008240,80.992035 72.995262,81.004837 72.986847,81.013573 
	C72.538498,81.026360 72.098564,81.030403 71.328400,81.034294 
z"/>
<path fill="#525252" opacity="1.000000" stroke="none" 
	d="
M56.449192,68.061737 
	C56.928776,71.010857 58.017647,74.039558 57.137432,77.096077 
	C59.238800,78.871407 63.475170,73.088020 63.906059,79.612930 
	C61.440220,82.925858 58.251579,84.721497 54.284107,85.851532 
	C54.395111,79.923653 54.399021,73.958344 56.449192,68.061737 
z"/>
<path fill="#707070" opacity="1.000000" stroke="none" 
	d="
M36.084915,58.329178 
	C36.637787,57.766056 37.164608,57.569176 37.847179,57.128311 
	C38.425770,56.567657 38.896774,56.458164 39.703381,56.798859 
	C40.564968,57.894367 41.453762,58.008163 42.710648,58.079803 
	C43.206421,58.272846 43.362335,58.441769 43.744568,58.871681 
	C45.023724,60.714626 45.131138,62.610706 45.794960,64.691689 
	C46.020508,65.735252 46.031178,66.442772 45.876099,67.505066 
	C45.567871,68.554131 45.180641,69.154022 44.343334,69.847443 
	C43.268276,70.021622 42.504269,70.014084 41.358253,70.010895 
	C38.206627,69.540710 39.512257,66.948448 38.449898,65.176926 
	C37.534756,62.804619 36.796810,60.750019 36.084915,58.329178 
z"/>
<path fill="#525252" opacity="1.000000" stroke="none" 
	d="
M38.193230,65.293213 
	C40.828072,65.556961 39.449299,68.104362 40.721359,69.770271 
	C41.539940,75.152634 44.712738,79.956581 42.873722,85.794029 
	C39.685619,86.167099 37.971100,85.573463 38.772404,81.510780 
	C39.795151,76.325371 38.956238,70.968872 38.193230,65.293213 
z"/>
<path fill="#424242" opacity="1.000000" stroke="none" 
	d="
M31.112949,42.665031 
	C29.675505,44.600071 30.215431,46.506790 29.875935,48.684017 
	C27.211002,48.684246 26.950663,46.820065 27.002224,44.377644 
	C27.501373,41.612789 25.618170,38.412762 29.719837,37.071117 
	C31.635134,38.541664 31.982105,40.344009 31.112949,42.665031 
z"/>
<path fill="#2D2D2D" opacity="1.000000" stroke="none" 
	d="
M88.758347,89.723694 
	C89.006386,90.432693 89.002686,90.881927 88.996010,91.668015 
	C86.538948,91.181854 81.722931,95.351181 82.041061,88.311554 
	C84.208443,88.431908 86.357529,88.947906 88.758347,89.723694 
z"/>
<path fill="#B9B9B9" opacity="1.000000" stroke="none" 
	d="
M22.790661,47.721703 
	C22.344427,49.249615 22.024437,50.382133 21.544538,51.832085 
	C20.560013,52.565937 19.819027,52.341965 18.833286,51.554184 
	C17.768873,48.595463 17.469965,45.986252 19.742266,43.468365 
	C21.371363,43.231312 22.259052,43.741474 22.877495,45.277481 
	C23.079721,46.234856 23.062794,46.782581 22.790661,47.721703 
z"/>
<path fill="#333333" opacity="1.000000" stroke="none" 
	d="
M25.275099,74.843521 
	C23.264023,72.627312 23.934662,70.082207 24.712015,67.269073 
	C25.247366,67.486015 25.513733,67.982399 25.894659,68.736176 
	C26.046616,70.903236 28.140066,72.967461 25.275099,74.843521 
z"/>
<path fill="#424242" opacity="1.000000" stroke="none" 
	d="
M22.960686,48.093281 
	C22.480646,47.692944 22.296881,47.268795 22.105728,46.489952 
	C22.618170,45.496502 22.290600,44.470985 23.399694,43.926079 
	C23.708378,43.891876 23.994257,43.963226 24.134068,44.017189 
	C23.683601,45.340004 26.158031,47.388329 22.960686,48.093281 
z"/>
<path fill="#B0B0B0" opacity="1.000000" stroke="none" 
	d="
M18.754126,51.322105 
	C19.636909,51.285534 20.207153,51.592258 21.081013,52.024254 
	C21.503443,52.859406 21.622255,53.569294 21.653143,54.634155 
	C20.993330,55.033646 20.421446,55.078159 19.419617,55.104057 
	C17.987032,54.076836 17.916079,52.918915 18.754126,51.322105 
z"/>
<path fill="#B9B9B9" opacity="1.000000" stroke="none" 
	d="
M79.974205,8.456266 
	C81.435036,8.640921 82.866570,9.282488 84.638489,9.964104 
	C85.688133,10.655992 85.431496,11.628635 85.831467,12.710091 
	C85.981453,13.826097 85.701698,14.625214 85.894997,15.722515 
	C85.970413,18.707485 85.982391,21.403793 85.994278,24.549641 
	C86.016068,25.877110 85.976463,26.768232 86.762253,27.772011 
	C86.987160,28.454630 86.987183,28.895733 86.986923,29.667665 
	C87.898575,36.389320 87.394226,42.815327 87.452385,49.226906 
	C87.466042,50.732643 87.031364,52.161270 86.357849,53.498531 
	C84.359489,57.466293 82.201302,57.594078 78.983330,53.547188 
	C78.537315,51.307182 78.183769,49.474915 78.181244,47.237820 
	C78.470284,45.614456 79.341431,44.380371 78.231506,42.749134 
	C77.821091,41.506901 77.798126,40.564747 77.907959,39.260639 
	C78.017075,38.582829 78.142456,38.268017 78.181137,37.944592 
	C79.149139,29.852154 78.761681,29.419500 70.389366,29.588619 
	C69.500313,29.431204 69.081146,29.156404 68.629150,28.365227 
	C68.560570,26.121855 69.852890,25.217173 71.624969,24.266331 
	C74.993645,23.469563 78.567902,23.714603 79.604370,19.242260 
	C79.849739,15.610648 79.897331,12.261913 79.974205,8.456266 
z"/>
<path fill="#B0B0B0" opacity="1.000000" stroke="none" 
	d="
M79.586472,51.625221 
	C80.300713,53.436935 80.441391,55.581985 82.386894,55.662994 
	C84.638725,55.756752 84.997475,53.303661 85.477478,51.733196 
	C86.650002,47.896957 85.759834,43.877014 86.005600,39.943260 
	C86.199783,36.835140 85.530373,33.688492 86.705750,30.305531 
	C88.849686,31.549149 88.924950,33.667500 89.029724,35.873795 
	C89.264702,40.821812 88.253273,45.830845 89.724159,50.720978 
	C89.817032,51.029728 89.944794,51.530270 89.794762,51.680672 
	C83.532547,57.958282 88.566185,67.104958 83.829987,74.068512 
	C83.298706,74.273239 83.089523,74.245636 82.629135,74.024734 
	C81.806854,73.218895 81.372040,72.466026 80.295273,71.897369 
	C79.831535,71.565071 79.650246,71.418839 79.224625,71.011734 
	C77.775940,69.102982 76.767754,67.384842 77.052284,64.835129 
	C78.170769,61.684624 76.869514,59.402378 75.825256,56.943287 
	C74.189491,53.091236 75.172096,51.700146 79.586472,51.625221 
z"/>
<path fill="#666666" opacity="1.000000" stroke="none" 
	d="
M82.798958,73.804886 
	C82.957169,74.066261 83.226982,74.204193 83.367432,74.252518 
	C83.674377,75.207535 83.840866,76.114227 84.031029,77.367004 
	C84.054710,77.713074 84.030731,78.081970 83.993713,78.263062 
	C81.607605,79.269638 80.191460,77.905617 78.709991,75.965164 
	C78.372902,75.200722 78.277580,74.741554 78.324730,73.932190 
	C78.776749,72.582298 79.677368,72.553032 80.872612,72.487404 
	C81.844772,72.604462 82.299210,72.996010 82.798958,73.804886 
z"/>
<path fill="#B0B0B0" opacity="1.000000" stroke="none" 
	d="
M86.215103,16.005314 
	C85.069313,15.815365 83.976601,15.790728 84.777298,14.175887 
	C85.375114,13.618954 85.834190,13.473793 86.673935,13.786818 
	C86.983131,14.450880 86.985817,14.891257 86.986847,15.661755 
	C86.814064,15.994399 86.642921,15.996924 86.215103,16.005314 
z"/>
<path fill="#B0B0B0" opacity="1.000000" stroke="none" 
	d="
M86.988510,27.675720 
	C85.400284,27.768335 84.641502,27.053095 85.752708,25.206314 
	C86.854698,25.553711 86.990738,26.416672 86.988510,27.675720 
z"/>
<path fill="#E6E6E6" opacity="1.000000" stroke="none" 
	d="
M79.382050,18.971363 
	C80.077461,25.051207 80.077461,25.051207 72.412033,24.866280 
	C70.658394,24.897411 69.553864,26.003294 67.851166,25.441534 
	C65.535149,23.448509 64.622086,20.920271 63.170685,18.351925 
	C62.485844,17.628448 62.049850,17.122589 61.333294,16.424726 
	C61.050232,13.344540 62.936985,12.936570 65.606689,13.081621 
	C68.848938,12.977313 71.472061,12.926529 70.186317,17.220911 
	C69.629745,19.079844 70.539772,19.790264 72.645241,19.350296 
	C74.687210,18.923601 76.851425,19.081938 79.382050,18.971363 
z"/>
<path fill="#626262" opacity="1.000000" stroke="none" 
	d="
M66.059937,12.972727 
	C64.429337,13.910627 62.347740,13.684665 61.175358,15.861628 
	C58.375336,16.503468 58.082733,14.298616 57.143982,12.306311 
	C57.771740,10.911289 58.948948,11.022530 60.416740,11.003637 
	C61.216087,10.617537 61.742737,10.485797 62.614708,10.967085 
	C63.778770,11.673059 64.668144,12.048362 65.913040,12.503649 
	C66.325882,12.376142 66.383209,12.168650 66.380035,12.278336 
	C66.319534,12.595514 66.131104,12.837083 66.059937,12.972727 
z"/>
<path fill="#D7D7D7" opacity="1.000000" stroke="none" 
	d="
M62.884369,10.970761 
	C62.415745,11.251089 61.942085,11.204423 61.114243,11.094681 
	C60.813812,10.562325 60.867569,10.093046 61.058392,9.297039 
	C62.142395,9.140082 62.745342,9.655989 62.884369,10.970761 
z"/>
<path fill="#D7D7D7" opacity="1.000000" stroke="none" 
	d="
M66.426514,12.430984 
	C66.319534,12.595514 66.310593,12.524508 66.289581,12.554070 
	C66.405312,12.518369 65.857910,11.881663 66.426514,12.430984 
z"/>
<path fill="#C6C6C6" opacity="1.000000" stroke="none" 
	d="
M27.343002,19.725100 
	C27.116806,20.062494 26.949017,20.430618 26.901726,20.627291 
	C25.847235,22.579950 24.148449,23.272902 21.924427,23.845047 
	C20.075008,23.901066 18.756298,23.695229 18.778378,21.502401 
	C19.757593,19.905083 20.535461,18.663809 21.179688,17.218742 
	C22.063545,14.486338 24.299845,15.184747 26.609829,15.004980 
	C27.191010,15.137815 27.387226,15.324649 27.749317,15.883175 
	C28.262913,17.350286 28.173620,18.397440 27.343002,19.725100 
z"/>
<path fill="#D7D7D7" opacity="1.000000" stroke="none" 
	d="
M27.479317,16.405111 
	C27.080025,16.073296 27.066250,15.848779 27.023634,15.287621 
	C27.114967,13.186556 26.629650,11.343763 27.685421,9.257134 
	C29.786274,10.961089 28.608587,13.102785 29.044495,15.214270 
	C28.844141,16.166132 28.450161,16.465265 27.479317,16.405111 
z"/>
<path fill="#B9B9B9" opacity="1.000000" stroke="none" 
	d="
M32.502937,14.748728 
	C32.258434,15.170866 32.054035,15.247776 31.522594,15.307415 
	C30.955271,12.890012 31.549202,10.785606 33.750423,9.120117 
	C34.304615,11.093019 34.086514,12.945815 32.502937,14.748728 
z"/>
<path fill="#666666" opacity="1.000000" stroke="none" 
	d="
M27.092871,16.674953 
	C27.531967,16.158382 27.970135,16.018953 28.727520,15.747240 
	C29.235397,15.759496 29.424055,15.904036 29.882046,16.282293 
	C30.200222,18.249811 29.562117,19.516888 27.448315,20.034538 
	C27.108517,19.059029 27.100229,18.055561 27.092871,16.674953 
z"/>
<path fill="#9C9C9C" opacity="1.000000" stroke="none" 
	d="
M23.727432,43.647285 
	C23.326168,44.529999 22.943958,45.168121 22.330044,45.970753 
	C21.908005,45.209038 21.691536,44.300671 20.280853,43.905106 
	C18.143221,43.084961 17.129471,45.177467 15.150942,45.093552 
	C14.309717,45.134090 13.826251,45.097973 12.976904,44.966251 
	C11.374829,44.589569 10.153014,44.246883 8.851271,43.190777 
	C8.425341,42.389034 8.406281,41.881142 8.779612,41.055237 
	C11.049151,40.476460 13.900620,42.810036 14.796553,38.546989 
	C12.468186,35.628208 14.463874,32.409645 13.216167,29.337898 
	C12.989183,29.007847 12.928931,28.606699 12.948265,28.406059 
	C12.957411,27.175377 12.947224,26.145332 12.885590,24.742836 
	C14.180163,24.195587 15.526185,24.020792 17.272213,23.784767 
	C17.894382,23.806480 18.116550,23.889427 18.551243,24.256477 
	C19.609528,26.257063 19.139946,28.190063 19.766434,30.274014 
	C20.500429,32.627327 20.839298,34.759666 22.049809,36.925285 
	C22.374798,37.351833 22.498928,37.527805 22.793217,37.979851 
	C23.431978,39.669415 24.585682,40.853172 24.147812,42.716156 
	C23.911974,42.940784 23.746487,43.402695 23.727432,43.647285 
z"/>
<path fill="#C6C6C6" opacity="1.000000" stroke="none" 
	d="
M10.357534,17.040840 
	C9.972730,16.546364 9.971059,16.110090 9.959432,15.346876 
	C11.702622,13.680863 12.153029,11.897265 12.000066,9.757679 
	C11.884521,8.141502 11.724931,6.267069 14.550926,5.978851 
	C14.960375,8.764283 14.864678,11.597938 15.024370,14.417127 
	C15.231985,18.082357 13.472151,18.290209 10.357534,17.040840 
z"/>
<path fill="#9C9C9C" opacity="1.000000" stroke="none" 
	d="
M18.729694,21.308720 
	C19.048306,22.599609 19.928797,23.059084 21.582737,22.971148 
	C22.129593,23.113140 22.332912,23.276329 22.734173,23.777914 
	C23.520908,25.902866 23.406996,27.714067 22.997952,29.902355 
	C22.737473,30.494822 22.601044,30.716204 22.156891,31.174988 
	C21.351208,31.580517 20.848671,31.597275 20.035658,31.238590 
	C18.390715,29.064959 19.544020,26.609501 18.225426,24.311226 
	C18.010296,24.014559 17.846291,23.866583 17.759254,23.795059 
	C17.941364,22.972717 18.210514,22.221901 18.729694,21.308720 
z"/>
<path fill="#ABABAB" opacity="1.000000" stroke="none" 
	d="
M86.949951,13.664893 
	C86.538353,14.007452 86.096245,14.004399 85.322166,13.999986 
	C84.989555,12.933352 84.988914,11.868081 84.983574,10.403481 
	C85.148659,10.002875 85.318443,10.001599 85.742897,9.999398 
	C86.304855,11.105410 86.612152,12.212346 86.949951,13.664893 
z"/>
<path fill="#A9A9A9" opacity="1.000000" stroke="none" 
	d="
M4.321107,86.325302 
	C3.943624,82.922745 3.864931,79.313301 3.576572,75.372391 
	C3.939704,71.963188 5.214816,69.009254 5.050247,65.378403 
	C6.724481,62.245293 8.472918,61.319519 10.458808,64.626350 
	C11.144536,65.768196 12.173698,66.586014 13.243305,67.892441 
	C13.621229,72.039780 13.145642,75.727409 11.147911,79.482384 
	C8.790492,81.893181 6.705194,84.005806 4.321107,86.325302 
z"/>
<path fill="#838383" opacity="1.000000" stroke="none" 
	d="
M11.151197,79.791031 
	C10.984893,76.012421 11.641672,72.335762 12.886913,68.375252 
	C12.462679,67.402946 12.837855,66.906204 13.535595,66.269989 
	C15.283762,66.394783 16.749998,66.664139 18.592680,66.930481 
	C19.906204,66.706474 20.285032,67.250999 20.448704,68.395752 
	C20.279234,68.957458 20.149799,69.159073 19.728922,69.566528 
	C18.908405,70.602066 16.054520,69.496880 17.879599,72.117203 
	C18.393822,72.308792 18.592546,72.406479 19.016861,72.747963 
	C19.371063,77.218498 14.887718,76.143768 12.969952,78.552811 
	C12.313460,79.162178 11.870032,79.481842 11.151197,79.791031 
z"/>
<path fill="#424242" opacity="1.000000" stroke="none" 
	d="
M12.999117,83.999084 
	C12.901246,84.612099 12.887147,85.307663 12.106125,85.455170 
	C11.943781,85.485825 11.709878,85.137573 11.508953,84.963936 
	C11.822858,84.667641 12.136763,84.371353 12.726288,84.038422 
	C13.001908,84.001778 13.000000,84.000000 12.999117,83.999084 
z"/>
<path fill="#292929" opacity="1.000000" stroke="none" 
	d="
M78.586807,74.797241 
	C80.379555,76.076042 81.860733,77.084999 83.649300,78.269058 
	C83.956688,80.532471 83.956688,82.620781 83.956688,84.790512 
	C81.068619,84.810753 79.843826,82.145638 76.974380,80.863770 
	C74.873192,79.067245 73.712906,77.352501 74.785942,75.258789 
	C75.501968,73.861656 76.922287,73.893517 78.586807,74.797241 
z"/>
<path fill="#2D2D2D" opacity="1.000000" stroke="none" 
	d="
M73.327759,81.028961 
	C72.997871,80.555481 72.987495,80.118927 73.221344,79.135330 
	C75.158737,78.142700 75.815544,79.402084 76.789566,80.740082 
	C76.997810,80.997978 77.000015,81.000000 77.000153,81.001038 
	C75.912155,82.575325 74.766685,81.135727 73.327759,81.028961 
z"/>
<path fill="#707070" opacity="1.000000" stroke="none" 
	d="
M20.331648,69.214127 
	C19.830204,68.446594 19.640888,67.878174 19.210348,67.118607 
	C19.225018,65.018051 20.639498,64.995140 22.426874,65.006645 
	C22.671951,66.160454 22.571196,67.323921 22.223358,68.736504 
	C21.601759,69.345200 21.154381,69.477730 20.331648,69.214127 
z"/>
<path fill="#626262" opacity="1.000000" stroke="none" 
	d="
M19.775928,69.029739 
	C20.454447,69.008408 20.889374,69.001793 21.650288,68.990402 
	C22.045317,70.697662 21.877449,72.284927 19.573051,72.956429 
	C19.242449,72.991760 19.100264,73.024574 19.027622,73.031380 
	C18.167698,72.033287 17.935215,70.953133 18.777752,69.415054 
	C19.044765,69.066734 19.532333,69.044464 19.775928,69.029739 
z"/>
<path fill="#B9B9B9" opacity="1.000000" stroke="none" 
	d="
M12.987766,29.385408 
	C16.419836,31.112249 14.464786,34.478764 14.856920,37.721741 
	C11.155217,38.320793 9.155230,37.506149 11.742388,33.498493 
	C12.431739,32.430649 12.586272,31.017553 12.987766,29.385408 
z"/>
<path fill="#B9B9B9" opacity="1.000000" stroke="none" 
	d="
M8.951841,40.431259 
	C9.000962,41.298080 8.990189,41.852871 8.984554,42.821564 
	C9.980774,44.992329 10.237781,46.821217 9.295086,49.017731 
	C8.609369,49.482121 8.144056,49.541798 7.374614,49.230709 
	C6.594688,47.337135 6.101629,45.660782 5.343345,43.872871 
	C5.367094,42.455902 5.656066,41.150497 6.012083,39.515045 
	C7.141409,39.121033 8.287525,38.804653 8.951841,40.431259 
z"/>
<path fill="#C6C6C6" opacity="1.000000" stroke="none" 
	d="
M2.973104,29.452030 
	C4.389503,29.064629 5.810924,29.061195 7.656238,29.125929 
	C7.870901,29.803659 7.695324,30.427395 7.445769,31.019978 
	C6.836876,32.465824 5.690453,33.773994 4.213441,33.511707 
	C2.201033,33.154339 3.289092,31.125637 2.973104,29.452030 
z"/>
<path fill="#B3B3B3" opacity="1.000000" stroke="none" 
	d="
M7.077329,49.424812 
	C7.487121,49.013344 7.886493,49.013199 8.586162,49.014359 
	C10.072167,49.448551 10.498699,50.525711 11.155186,51.828091 
	C11.590524,52.963264 12.088681,53.694126 12.621283,54.777924 
	C13.243762,56.125816 12.985996,57.247025 13.128922,58.658497 
	C13.336730,61.105427 13.496264,63.227791 13.736662,65.737793 
	C13.619255,66.595459 13.420984,67.065483 13.137438,67.778114 
	C11.110902,68.032639 9.407778,67.705589 9.036011,65.343384 
	C8.456964,61.664124 6.879041,64.702629 5.416381,64.912560 
	C5.018206,63.863251 4.932996,62.761883 4.788978,61.367973 
	C4.783110,59.995026 4.836050,58.914623 4.866269,57.428246 
	C5.310493,56.456306 6.089882,56.554054 6.793972,55.869690 
	C6.984565,53.655342 7.025737,51.745739 7.077329,49.424812 
z"/>
<path fill="#A9A9A9" opacity="1.000000" stroke="none" 
	d="
M6.600137,55.635120 
	C6.756975,56.309319 6.302911,56.780865 5.192794,56.980965 
	C4.521879,56.876606 4.304461,56.636486 4.183555,56.051155 
	C4.869502,55.768696 5.563192,55.736996 6.600137,55.635120 
z"/>
<path fill="#7C7C7C" opacity="1.000000" stroke="none" 
	d="
M2.538864,64.471329 
	C2.563831,64.516869 2.513898,64.425781 2.538864,64.471329 
z"/>
<path fill="#838383" opacity="1.000000" stroke="none" 
	d="
M31.467680,26.303467 
	C37.248394,15.083573 43.756577,12.690866 54.798565,17.727318 
	C55.941952,20.537704 55.922604,23.101635 55.300961,26.021587 
	C54.186275,27.037401 53.145966,27.170698 51.673988,27.120365 
	C49.280888,26.457388 47.272491,26.550379 44.877659,27.123346 
	C41.834686,27.673105 39.152519,27.328814 36.078186,27.432068 
	C35.132542,27.425356 34.592064,27.402458 33.647614,27.309553 
	C32.706745,27.128029 32.216389,26.901020 31.467680,26.303467 
z"/>
<path fill="#B3B3B3" opacity="1.000000" stroke="none" 
	d="
M55.217995,25.942560 
	C54.299625,23.340147 53.280228,21.100727 54.861897,18.379385 
	C58.933632,18.478701 60.637913,21.927267 63.585941,24.257778 
	C65.205963,25.292767 65.325890,26.692228 65.395187,28.521923 
	C65.340355,29.763031 65.210876,30.570492 64.650169,31.666548 
	C64.029350,32.346561 63.566250,32.548634 62.674179,32.538239 
	C60.583012,31.578892 60.780544,29.161079 58.709019,28.128231 
	C57.397320,27.361681 56.145576,27.207405 55.217995,25.942560 
z"/>
<path fill="#666666" opacity="1.000000" stroke="none" 
	d="
M22.293606,24.306385 
	C22.059353,23.866032 22.038754,23.682034 21.972214,23.223991 
	C23.346987,22.305178 24.767700,21.660404 26.521423,20.919798 
	C26.807884,25.925238 27.803425,31.111496 25.340729,36.271530 
	C24.750984,37.423965 24.032623,37.704498 22.748180,37.599609 
	C19.815659,35.940601 20.776630,33.767239 21.533504,31.329727 
	C21.761805,30.987703 22.013845,30.989731 22.139866,30.990944 
	C23.377476,28.887730 23.239136,26.736376 22.293606,24.306385 
z"/>
<path fill="#939393" opacity="1.000000" stroke="none" 
	d="
M31.098816,26.471737 
	C31.579027,26.023094 31.994667,26.014059 32.722343,26.001701 
	C34.942364,27.579185 34.640465,29.982510 35.406734,32.344376 
	C35.587288,32.871338 35.642296,33.088913 35.715645,33.640984 
	C35.697441,34.193066 35.660889,34.410656 35.494293,34.928284 
	C34.971512,35.919895 34.163483,36.362209 34.206680,37.561676 
	C34.523418,38.667854 35.145569,39.265667 35.658951,40.320305 
	C35.926998,41.362137 35.848377,42.056583 35.298874,43.006748 
	C34.588284,43.490341 34.102791,43.533890 33.300087,43.218979 
	C32.513866,42.992821 32.030602,42.989857 31.183561,42.972839 
	C30.609991,41.232368 30.400192,39.505951 30.147192,37.403709 
	C31.413980,33.747650 30.765511,30.287327 31.098816,26.471737 
z"/>
<path fill="#626262" opacity="1.000000" stroke="none" 
	d="
M64.191429,29.202232 
	C63.889633,27.673563 63.834156,26.386715 63.856560,24.721930 
	C64.523598,22.365194 63.259552,20.730518 62.924801,18.528519 
	C65.720322,19.388666 66.640129,22.217043 68.545822,24.680664 
	C68.867195,25.075569 68.879707,25.267994 68.847839,25.747349 
	C68.562042,26.561817 68.254433,27.070198 68.394081,27.988243 
	C68.513779,28.494036 68.564392,28.699579 68.715126,29.214912 
	C68.917168,30.701649 68.790680,31.961544 67.409752,32.088184 
	C65.685585,32.246304 65.193130,30.605030 64.191429,29.202232 
z"/>
<path fill="#666666" opacity="1.000000" stroke="none" 
	d="
M24.212902,42.734337 
	C24.161907,41.249844 21.527235,40.854843 22.211260,38.673923 
	C22.682941,37.176521 23.661135,37.610722 24.788361,37.854759 
	C24.911448,39.606792 24.712641,41.067341 24.212902,42.734337 
z"/>
<path fill="#9C9C9C" opacity="1.000000" stroke="none" 
	d="
M25.160168,37.734379 
	C24.398006,38.167980 23.685760,38.189713 22.627213,38.279564 
	C22.280910,38.347675 22.142237,38.167900 22.068789,38.081337 
	C21.887995,37.780434 21.780647,37.566090 21.917393,37.087700 
	C22.895351,36.782753 23.629215,36.741852 24.715401,36.603004 
	C25.115177,36.777542 25.162628,37.050026 25.160168,37.734379 
z"/>
<path fill="#292929" opacity="1.000000" stroke="none" 
	d="
M66.750008,66.769989 
	C66.986206,67.752319 66.988472,68.500198 66.987930,69.621895 
	C66.656906,69.996925 66.300217,69.913094 66.004692,70.012001 
	C60.821125,71.746803 58.313126,69.872665 58.115044,64.156456 
	C58.166782,62.125645 58.524925,60.369038 58.843586,58.222931 
	C58.743698,54.550373 61.113071,52.633888 63.267570,50.192677 
	C64.489502,49.475056 65.278656,48.740513 66.741135,48.496510 
	C69.837830,49.918694 69.557983,52.043694 68.292480,54.688744 
	C68.007622,56.734154 67.979172,58.433361 67.934113,60.556969 
	C66.865852,62.685276 63.338211,63.764446 66.750008,66.769989 
z"/>
<path fill="#9C9C9C" opacity="1.000000" stroke="none" 
	d="
M64.081207,50.537338 
	C61.910976,52.746815 61.611576,55.751202 59.032852,57.590561 
	C58.804104,57.833435 58.438915,57.732342 58.251328,57.705765 
	C57.702526,57.407734 57.398270,57.082146 56.998642,56.407604 
	C56.534290,55.045597 56.086742,54.033966 55.611801,52.676926 
	C55.475502,51.437077 55.724117,50.577465 56.118393,49.409462 
	C56.443699,48.698879 56.676487,48.318913 57.150219,47.699821 
	C57.653816,47.108227 57.958454,46.784225 58.496788,46.219223 
	C59.920185,44.915855 60.027561,42.944691 62.132462,42.278587 
	C63.014729,42.219685 63.503483,42.346695 64.258438,42.854485 
	C65.169159,44.077843 65.375435,45.141445 65.389328,46.669853 
	C65.181152,48.189117 65.028519,49.301102 64.081207,50.537338 
z"/>
<path fill="#525252" opacity="1.000000" stroke="none" 
	d="
M45.399170,68.301224 
	C45.042980,67.244148 45.023361,66.496910 44.994736,65.376007 
	C45.167419,63.123867 44.635483,61.204769 45.549973,59.011440 
	C46.472473,58.106892 47.270531,57.839470 48.563515,57.700382 
	C49.886677,57.636829 50.726170,57.835220 51.869129,58.496407 
	C52.741299,59.551392 52.757309,60.387039 52.214119,61.622429 
	C51.988884,61.992290 51.509060,62.017689 51.269093,62.029228 
	C50.373478,62.673409 50.157478,63.497299 50.006241,64.678497 
	C49.983757,65.742142 49.976929,66.483444 49.966194,67.595398 
	C48.693459,69.098518 47.290546,69.352425 45.399170,68.301224 
z"/>
<path fill="#A9A9A9" opacity="1.000000" stroke="none" 
	d="
M55.859673,51.338696 
	C56.458900,52.978336 58.224133,53.569664 57.982368,55.587643 
	C57.494133,56.502197 56.956108,57.020676 56.160507,57.669815 
	C55.485012,57.923706 55.043373,58.022858 54.280529,58.232048 
	C53.714642,58.380886 53.469959,58.419682 52.885578,58.306068 
	C49.996078,56.416512 49.819763,54.154289 51.306385,51.260330 
	C51.721813,50.791111 51.920742,50.633648 52.476978,50.343281 
	C53.903263,50.028519 54.848789,50.274548 55.859673,51.338696 
z"/>
<path fill="#5D5D5D" opacity="1.000000" stroke="none" 
	d="
M44.816879,68.167221 
	C46.423767,67.990486 47.784935,67.989571 49.554199,67.977348 
	C49.972488,68.448029 49.965408,68.931107 49.995895,69.411804 
	C50.124783,71.444183 49.908134,73.707527 47.804974,74.287560 
	C45.120342,75.027954 45.497688,71.884766 44.170288,70.338470 
	C44.211914,69.467125 44.391541,68.905090 44.816879,68.167221 
z"/>
<path fill="#5D5D5D" opacity="1.000000" stroke="none" 
	d="
M52.659950,57.946396 
	C53.154659,58.070473 53.320805,58.107323 53.723137,58.243134 
	C54.048576,59.687992 53.820957,60.902676 52.280075,61.843208 
	C51.992249,61.244450 51.995609,60.496609 51.999512,59.374725 
	C51.812054,58.533554 51.936241,58.157040 52.659950,57.946396 
z"/>
<path fill="#5D5D5D" opacity="1.000000" stroke="none" 
	d="
M50.244881,64.791321 
	C48.547226,63.803783 49.534340,63.046448 50.755791,62.161415 
	C50.852474,62.887783 50.675823,63.734798 50.244881,64.791321 
z"/>
<path fill="#939393" opacity="1.000000" stroke="none" 
	d="
M56.285454,57.883217 
	C56.081402,56.964943 56.466217,56.295517 57.686241,56.003262 
	C58.004536,56.330830 58.018089,56.719734 58.047691,57.393917 
	C57.590580,57.766758 57.117416,57.854324 56.285454,57.883217 
z"/>
<path fill="#525252" opacity="1.000000" stroke="none" 
	d="
M56.759544,65.018410 
	C56.990517,65.175522 56.984558,65.353271 56.931839,65.794266 
	C56.506233,65.858154 56.127392,65.658798 55.748550,65.459450 
	C56.006573,65.319313 56.264599,65.179184 56.759544,65.018410 
z"/>
<path fill="#292929" opacity="1.000000" stroke="none" 
	d="
M67.888756,76.264984 
	C68.839745,76.541023 68.997368,77.398102 69.050880,78.644196 
	C67.307983,78.884743 66.958794,78.029938 67.888756,76.264984 
z"/>
<path fill="#292929" opacity="1.000000" stroke="none" 
	d="
M66.831772,72.095291 
	C67.022522,71.982430 67.032478,72.465607 67.041580,72.706566 
	C66.824173,73.056671 66.597664,73.165825 66.371155,73.274979 
	C66.461105,72.919365 66.551056,72.563759 66.831772,72.095291 
z"/>
<path fill="#5D5D5D" opacity="1.000000" stroke="none" 
	d="
M40.158230,48.836601 
	C36.237701,51.210232 36.567001,47.103954 34.970535,45.358688 
	C34.524323,44.342587 34.827648,43.804371 35.376442,42.999748 
	C35.816067,41.398964 36.896637,40.625225 37.844749,39.370388 
	C38.176365,38.951767 38.317509,38.789612 38.689972,38.399578 
	C39.780754,37.483837 40.610222,36.739956 42.117073,36.691795 
	C44.256462,37.584808 45.958755,36.941151 48.036766,36.354309 
	C50.396103,36.596779 51.711121,37.752422 52.711098,39.880268 
	C52.999802,41.083755 52.922794,41.882149 52.389641,42.993519 
	C50.798454,44.376659 49.237305,44.410328 47.266411,44.136127 
	C44.983074,43.322151 43.039803,42.333420 41.267197,44.903030 
	C40.592281,46.242352 40.458420,47.384785 40.158230,48.836601 
z"/>
<path fill="#424242" opacity="1.000000" stroke="none" 
	d="
M40.299381,49.158752 
	C38.773148,48.210423 38.785755,46.970341 39.616867,45.355370 
	C41.400261,43.723141 43.103146,42.620823 45.611675,42.720848 
	C47.662025,42.959316 49.381149,42.997959 51.529522,43.052719 
	C54.170681,43.761326 55.538700,45.359207 56.584755,47.708977 
	C56.555241,48.309196 56.486797,48.544731 56.218727,49.090790 
	C55.392078,49.856133 54.675056,49.971325 53.559814,49.942772 
	C52.958641,49.894470 52.721264,49.860001 52.152779,49.695145 
	C48.942253,47.296200 45.983803,46.179840 42.453018,49.102993 
	C41.922276,49.316124 41.697781,49.369461 41.162277,49.270905 
	C40.851269,49.119011 40.482597,49.136635 40.299381,49.158752 
z"/>
<path fill="#7C7C7C" opacity="1.000000" stroke="none" 
	d="
M44.380890,58.141106 
	C43.718395,56.166180 43.439831,54.338509 43.177551,52.113991 
	C45.008972,50.262585 47.004822,50.391605 49.440628,51.261719 
	C51.432083,53.073242 49.839199,54.690178 49.653519,56.669106 
	C48.129990,58.347729 46.324135,57.854374 44.380890,58.141106 
z"/>
<path fill="#525252" opacity="1.000000" stroke="none" 
	d="
M50.268959,52.118553 
	C47.986404,51.929890 45.999737,51.902798 43.603451,51.796429 
	C43.032154,50.563183 42.076309,50.133018 41.050743,49.351803 
	C41.073051,49.085552 41.294830,49.052097 41.851486,48.986343 
	C45.238361,46.561855 48.436142,47.383938 52.086460,48.764069 
	C52.524532,49.003254 52.703579,48.939724 52.798508,48.943138 
	C53.309364,49.213425 53.458061,49.594917 53.132328,50.310726 
	C52.719650,50.581619 52.551975,50.616592 52.155140,50.767754 
	C51.638870,51.511753 51.258575,52.048725 50.268959,52.118553 
z"/>
<path fill="#939393" opacity="1.000000" stroke="none" 
	d="
M40.127449,56.732719 
	C39.548767,57.012074 39.106716,56.982243 38.333797,56.918369 
	C38.356625,55.666691 36.014576,53.788063 38.371849,53.293388 
	C40.399025,52.867989 41.241821,54.384769 40.127449,56.732719 
z"/>
<path fill="#666666" opacity="1.000000" stroke="none" 
	d="
M43.759876,58.017315 
	C45.332726,57.271172 46.747906,56.891018 48.650597,56.988289 
	C49.339058,57.327362 49.491039,57.742752 49.350456,58.519371 
	C48.403419,58.887592 47.609337,58.948643 46.416649,59.013798 
	C45.347679,59.574821 44.595173,59.740288 43.417255,59.269051 
	C43.078541,59.045578 43.058144,58.573708 43.054325,58.338818 
	C43.050507,58.103928 43.522793,58.040775 43.759876,58.017315 
z"/>
<path fill="#7C7C7C" opacity="1.000000" stroke="none" 
	d="
M35.731155,42.732040 
	C35.721649,43.505100 35.448669,44.007854 35.037262,44.763386 
	C34.022820,44.902390 33.319031,44.565849 33.042976,43.306282 
	C33.425800,42.989574 33.854462,42.983368 34.604591,42.982399 
	C35.106598,42.812336 35.287140,42.637035 35.731155,42.732040 
z"/>
<path fill="#939393" opacity="1.000000" stroke="none" 
	d="
M14.880585,44.201515 
	C16.879059,44.783314 17.856876,40.694908 19.899988,43.543694 
	C19.638479,45.978447 19.337296,48.122017 19.051392,50.622196 
	C19.045576,52.073067 19.024487,53.167332 18.996534,54.673519 
	C18.119663,56.153450 16.881403,55.965321 15.362329,56.069603 
	C14.821163,55.929005 14.638918,55.762424 14.294004,55.264198 
	C13.937363,54.220856 13.955631,53.509350 14.255077,52.483307 
	C14.662942,51.089508 16.723860,50.852165 15.597172,48.945587 
	C15.146829,48.354607 14.904115,47.999859 14.517439,47.337215 
	C14.296579,46.819607 14.232788,46.600857 14.147604,46.038364 
	C14.184325,45.230511 14.352452,44.808674 14.880585,44.201515 
z"/>
<path fill="#838383" opacity="1.000000" stroke="none" 
	d="
M14.615932,54.662270 
	C14.977075,55.081100 14.981303,55.283676 14.994470,55.790924 
	C14.542787,56.939320 14.082165,57.783051 13.399370,58.804920 
	C11.890457,58.218597 11.987049,56.934357 11.941861,55.327282 
	C12.609162,54.309925 13.397424,54.209923 14.615932,54.662270 
z"/>
<path fill="#333333" opacity="1.000000" stroke="none" 
	d="
M64.454689,47.208527 
	C64.213493,45.859650 64.168503,44.804798 64.034126,43.363739 
	C63.781506,42.098072 63.834797,41.239876 64.345291,40.116966 
	C64.934204,39.144165 65.651917,38.496246 64.484634,37.431641 
	C63.604515,36.480507 63.174480,35.662567 62.954430,34.358696 
	C62.957329,33.503857 63.085079,33.036011 63.473507,32.268646 
	C63.721531,31.201269 63.787445,30.454027 63.899235,29.333599 
	C64.421486,29.058836 64.931137,29.081184 65.367172,29.271862 
	C66.218918,29.644329 66.302322,31.417927 67.460304,30.850416 
	C67.957062,30.606962 67.837318,29.105585 68.063293,27.813917 
	C68.311615,27.342978 68.494324,27.233864 68.995995,27.112347 
	C69.353218,27.582052 69.391472,28.064156 69.660263,28.834429 
	C71.918404,30.384117 72.038475,32.520679 72.408348,34.921791 
	C72.367859,36.696960 72.557907,38.079464 72.880501,39.779640 
	C72.969940,40.947437 73.021828,41.788490 73.551559,42.847027 
	C73.888954,43.750187 73.965904,44.383766 73.960579,45.350163 
	C73.864426,46.524609 73.807716,47.376530 74.082458,48.548416 
	C74.454979,52.069611 75.029968,55.216217 75.951004,58.637703 
	C76.354248,59.798096 76.618820,60.650085 77.403000,61.628239 
	C77.859703,62.569145 77.919479,63.243355 77.698807,64.262901 
	C77.406990,65.018120 77.177879,65.417839 76.618530,65.991020 
	C76.103798,66.226692 75.874855,66.263832 75.350319,66.117477 
	C74.341171,63.448521 73.614807,60.966652 72.917984,58.476513 
	C72.328293,56.369236 71.040855,55.128307 68.411819,55.032120 
	C67.564835,53.101765 69.004662,50.760311 66.423416,49.109886 
	C65.351135,48.734264 64.996452,48.122631 64.454689,47.208527 
z"/>
<path fill="#2D2D2D" opacity="1.000000" stroke="none" 
	d="
M67.042908,66.626678 
	C65.481216,66.798470 63.276264,67.607330 63.166779,65.096542 
	C63.055653,62.548107 64.715591,61.275497 67.545975,60.995422 
	C68.189026,62.821362 67.722916,64.547134 67.042908,66.626678 
z"/>
<path fill="#2D2D2D" opacity="1.000000" stroke="none" 
	d="
M70.221252,69.686874 
	C70.092346,70.890717 70.355782,71.661690 71.680611,71.954430 
	C72.198380,72.166695 72.400726,72.326469 72.817909,72.808449 
	C73.576065,74.835533 74.305290,76.523964 73.265747,78.656754 
	C73.036659,78.964760 73.001869,78.996475 72.983307,79.011894 
	C69.167458,76.423927 68.519104,72.759026 69.707352,68.300293 
	C70.333588,68.413910 70.476883,68.865845 70.221252,69.686874 
z"/>
<path fill="#2D2D2D" opacity="1.000000" stroke="none" 
	d="
M72.897034,69.363541 
	C73.169472,68.451889 73.334633,67.907631 73.737320,67.197174 
	C75.326149,67.252327 75.919479,68.325348 76.739014,69.662025 
	C77.301666,70.920555 77.548149,71.872688 77.015419,73.171219 
	C76.051003,73.838242 75.307945,73.899010 74.193573,73.515274 
	C72.832115,72.330719 73.085686,70.949966 72.897034,69.363541 
z"/>
<path fill="#474747" opacity="1.000000" stroke="none" 
	d="
M72.749725,69.210831 
	C73.368263,70.082253 73.732224,71.168365 74.114944,72.601807 
	C73.723274,73.329269 73.239876,73.490349 72.352737,73.211884 
	C72.022003,72.991394 72.010246,72.499046 72.003143,72.252983 
	C72.162407,71.146454 72.328781,70.285988 72.749725,69.210831 
z"/>
<path fill="#474747" opacity="1.000000" stroke="none" 
	d="
M76.207657,70.030807 
	C75.323074,69.271706 74.769524,68.431351 74.095406,67.310989 
	C74.182899,66.753731 74.390945,66.476486 74.826866,66.066605 
	C75.054733,65.933975 75.519020,65.989731 75.751846,66.011093 
	C76.912033,66.472946 77.063576,67.409355 77.388504,68.573296 
	C77.199661,69.337601 76.912750,69.679207 76.207657,70.030807 
z"/>
<path fill="#474747" opacity="1.000000" stroke="none" 
	d="
M70.256744,69.770386 
	C69.998360,69.557625 69.989624,69.122253 69.978745,68.360855 
	C70.108704,67.320091 69.738319,66.444572 70.659554,65.946686 
	C71.195732,67.187592 71.137444,68.378059 70.256744,69.770386 
z"/>
<path fill="#5D5D5D" opacity="1.000000" stroke="none" 
	d="
M43.100655,59.404282 
	C43.812519,59.032803 44.546494,59.020023 45.649261,59.012573 
	C45.856937,60.833191 45.695827,62.648479 45.260223,64.733055 
	C43.493717,63.565601 44.034763,61.405960 43.100655,59.404282 
z"/>
<path fill="#838383" opacity="1.000000" stroke="none" 
	d="
M72.117813,41.247452 
	C71.841972,39.443184 71.546806,37.916714 71.397339,36.027763 
	C74.259354,35.647690 76.656479,36.559410 78.981110,38.483368 
	C79.119568,39.917683 79.092789,41.031925 79.104950,42.562641 
	C79.621185,43.703922 79.779633,44.476429 79.271660,45.662151 
	C79.338516,47.711735 79.627090,49.414616 79.914902,51.487003 
	C75.029381,51.616199 75.562881,54.636631 77.351067,57.087383 
	C79.132118,59.528351 79.458488,61.747959 78.437805,64.701187 
	C77.997688,65.142044 77.815132,65.295822 77.384735,65.191223 
	C77.067429,64.262550 76.997978,63.592266 76.908455,62.585285 
	C76.568680,61.637157 76.108498,61.121605 75.539734,60.264793 
	C73.672775,56.468987 73.109688,52.743526 73.202866,48.464642 
	C73.118614,47.589607 73.059753,47.137608 73.014641,46.340645 
	C72.936729,45.267422 72.868073,44.536163 72.725906,43.444706 
	C72.411575,42.584721 72.133102,42.098301 72.117813,41.247452 
z"/>
<path fill="#E6E6E6" opacity="1.000000" stroke="none" 
	d="
M79.374603,38.492393 
	C76.933311,37.556667 73.602020,39.146355 71.833572,35.850109 
	C70.982506,33.738518 70.421974,31.811764 69.876129,29.503803 
	C72.332840,26.977360 75.219681,28.232813 77.910110,28.136827 
	C79.609596,28.076193 80.057228,29.409346 80.002495,30.852463 
	C79.909782,33.296959 79.740150,35.738541 79.374603,38.492393 
z"/>
<path fill="#D7D7D7" opacity="1.000000" stroke="none" 
	d="
M69.471878,26.903004 
	C69.090614,27.072626 68.866264,27.045307 68.385414,27.235039 
	C68.128914,27.452089 67.971535,27.723711 68.058472,27.854397 
	C67.633316,27.547977 67.475479,27.007301 67.969810,26.016947 
	C68.268364,25.670647 68.544304,25.265623 68.699493,25.074383 
	C69.796227,24.815466 70.586197,23.727571 71.807045,24.656513 
	C71.187096,25.465288 70.407936,26.085672 69.471878,26.903004 
z"/>
<path fill="#B0B0B0" opacity="1.000000" stroke="none" 
	d="
M79.369514,45.950790 
	C79.047012,45.250103 79.044075,44.491360 79.092514,43.355862 
	C81.149437,43.609055 81.757965,44.500401 79.369514,45.950790 
z"/>
<path fill="#363636" opacity="1.000000" stroke="none" 
	d="
M76.895798,65.060181 
	C77.309952,64.955215 77.483009,64.977600 77.918152,64.994118 
	C78.173592,66.967812 79.188164,68.587662 80.125809,70.608315 
	C78.622093,72.025818 77.592773,71.424210 76.947586,69.418503 
	C76.686821,68.218094 76.371071,67.438835 76.020004,66.346008 
	C76.208023,65.750809 76.431374,65.469162 76.895798,65.060181 
z"/>
<path fill="#525252" opacity="1.000000" stroke="none" 
	d="
M76.765862,69.126755 
	C77.537971,70.044464 78.256691,70.849617 79.873856,70.933792 
	C80.212662,70.951431 80.601669,70.917610 80.791473,70.963356 
	C81.337807,71.348770 81.493744,71.767967 81.295807,72.559647 
	C80.636459,73.609947 80.004036,73.451523 79.099808,73.087151 
	C78.488785,73.348633 78.067352,73.488274 77.285477,73.200684 
	C76.667725,72.238274 76.341270,71.476852 75.945724,70.413742 
	C76.094139,69.826752 76.311653,69.541451 76.765862,69.126755 
z"/>
<path fill="#9C9C9C" opacity="1.000000" stroke="none" 
	d="
M81.354248,73.002151 
	C81.070923,72.452187 81.025978,72.041237 80.981155,71.319687 
	C82.436905,71.115364 83.015274,71.971466 82.969727,73.708191 
	C82.502319,73.757896 82.047478,73.449524 81.354248,73.002151 
z"/>
<path fill="#404040" opacity="1.000000" stroke="none" 
	d="
M76.635071,73.001282 
	C77.408066,73.008759 77.821968,73.017822 78.543030,73.019730 
	C78.879166,73.468491 78.908134,73.924416 78.917732,74.723709 
	C72.429123,74.595062 76.798645,78.251793 76.953979,80.642258 
	C75.891281,80.345955 74.784744,79.693932 73.357437,79.003334 
	C72.698425,77.229492 72.360191,75.494225 72.021973,73.375168 
	C72.490273,72.990166 72.958534,72.988937 73.780251,72.968430 
	C74.847786,72.967056 75.561874,72.984970 76.635071,73.001282 
z"/>
<path fill="#D7D7D7" opacity="1.000000" stroke="none" 
	d="
M66.750664,15.974770 
	C66.588158,16.080923 66.425102,16.028910 66.262047,15.976896 
	C66.424736,15.923465 66.587425,15.870033 66.750664,15.974770 
z"/>
<path fill="#E6E6E6" opacity="1.000000" stroke="none" 
	d="
M10.417053,53.140427 
	C9.666740,51.973675 9.360035,50.839649 8.969893,49.360645 
	C9.468657,47.258545 7.616575,45.582733 8.851116,43.521965 
	C10.163367,43.320080 11.337042,43.404694 12.770731,43.727310 
	C14.759843,47.612579 14.589576,50.812214 10.417053,53.140427 
z"/>
<path fill="#C6C6C6" opacity="1.000000" stroke="none" 
	d="
M10.098537,53.354355 
	C12.875539,51.023430 12.891513,47.884132 13.023375,44.374908 
	C13.499622,43.971653 13.968499,43.977997 14.791858,43.982155 
	C15.127746,44.432022 15.109154,44.884068 15.069891,45.674644 
	C13.784946,47.923332 16.591055,49.529572 15.224575,51.712120 
	C14.988605,52.716221 14.981749,53.438461 14.973869,54.519608 
	C14.215456,54.905533 13.458065,54.932545 12.319942,54.955860 
	C11.367351,54.501781 10.795489,54.051399 10.098537,53.354355 
z"/>
<path fill="#B9B9B9" opacity="1.000000" stroke="none" 
	d="
M22.007935,36.545330 
	C22.128317,37.018085 22.095148,37.212513 22.028660,37.700859 
	C18.761248,37.029388 20.034170,33.890381 19.036669,31.465763 
	C19.155020,30.943392 19.268042,30.804171 19.631563,30.762947 
	C20.299561,30.899258 20.717062,30.937572 21.448183,30.981796 
	C21.792664,32.747471 21.823521,34.507236 22.007935,36.545330 
z"/>
<path fill="#7C7C7C" opacity="1.000000" stroke="none" 
	d="
M19.906336,30.468472 
	C19.882061,30.860943 19.462124,30.972279 19.252060,31.027447 
	C17.305626,29.245403 18.190849,26.947943 17.978920,24.431583 
	C20.976484,25.298117 19.745161,27.911480 19.906336,30.468472 
z"/>
<path fill="#474747" opacity="1.000000" stroke="none" 
	d="
M21.974834,24.475117 
	C25.320721,25.905334 24.431660,28.297935 22.609873,30.879646 
	C22.133829,28.961508 22.001772,26.930855 21.974834,24.475117 
z"/>
<path fill="#707070" opacity="1.000000" stroke="none" 
	d="
M18.631813,69.043686 
	C19.024897,70.124451 19.005028,71.182167 18.970070,72.639038 
	C17.214306,73.066826 14.733458,75.028282 14.191163,71.683731 
	C13.648338,68.335922 16.375824,69.176445 18.631813,69.043686 
z"/>
<path fill="#7C7C7C" opacity="1.000000" stroke="none" 
	d="
M44.582626,26.715014 
	C46.511066,24.386337 48.518181,24.693607 50.849709,26.026260 
	C51.186432,26.707825 51.221363,27.067314 51.145634,27.698254 
	C51.093842,28.316635 51.117378,28.667643 51.286385,29.274529 
	C51.478165,29.707178 51.563370,29.881609 51.760826,30.334562 
	C51.994373,31.013834 52.077869,31.422600 52.151920,32.168472 
	C52.148190,33.187557 51.990517,33.843063 51.489300,34.745056 
	C50.618160,35.437653 49.964848,35.297855 49.033417,34.794064 
	C47.572922,33.298058 46.546715,31.848362 44.878090,30.540661 
	C44.530533,30.092306 44.415737,29.893263 44.197811,29.362610 
	C43.982635,28.322670 44.065693,27.639168 44.582626,26.715014 
z"/>
<path fill="#404040" opacity="1.000000" stroke="none" 
	d="
M44.382683,26.351929 
	C44.845551,27.068134 44.881298,27.688211 44.882927,28.622738 
	C42.857159,31.027802 40.579922,29.552023 37.984013,29.407976 
	C36.070930,29.061188 34.688869,28.642654 34.829643,26.395409 
	C38.030537,26.105036 40.993050,26.180418 44.382683,26.351929 
z"/>
<path fill="#404040" opacity="1.000000" stroke="none" 
	d="
M49.727768,28.272697 
	C50.208340,27.550619 50.519325,27.160492 50.957176,26.562187 
	C52.175396,26.199265 53.266750,26.044521 54.745209,25.740099 
	C56.340683,25.855795 57.549042,26.121170 58.961357,26.696766 
	C58.947674,27.760633 58.449631,28.299555 57.510868,28.934521 
	C55.337952,29.657021 53.701153,31.092093 51.279480,30.236736 
	C50.987122,30.013361 50.560257,29.927973 50.345787,29.890846 
	C49.690853,29.551805 49.512211,29.129757 49.727768,28.272697 
z"/>
<path fill="#7C7C7C" opacity="1.000000" stroke="none" 
	d="
M34.728737,26.019100 
	C35.090851,27.525082 36.069000,27.902061 37.668217,27.974007 
	C39.029877,29.223696 38.597523,30.429523 37.704769,31.940912 
	C36.840874,32.780289 36.124126,33.049973 34.917686,33.042931 
	C32.087318,31.392677 34.476162,28.587589 33.020180,26.354813 
	C33.486065,26.001766 33.937752,26.005157 34.728737,26.019100 
z"/>
<path fill="#939393" opacity="1.000000" stroke="none" 
	d="
M56.885513,28.412510 
	C57.657433,27.817888 58.129601,27.484461 58.883537,27.079012 
	C62.511139,26.773140 61.862740,29.242558 62.007622,31.582226 
	C62.377773,32.407814 62.597996,32.897110 62.634239,33.853165 
	C62.091339,35.432198 61.145542,35.804314 59.564907,35.635391 
	C57.740646,34.626789 57.048332,33.171288 56.222092,31.347490 
	C56.000214,30.144140 56.128914,29.374807 56.885513,28.412510 
z"/>
<path fill="#A3A3A3" opacity="1.000000" stroke="none" 
	d="
M62.270851,34.231651 
	C62.010059,33.561485 62.009274,33.109715 62.015388,32.318691 
	C62.385326,31.974192 62.748371,31.968943 63.383514,31.956100 
	C63.733513,32.413788 63.811413,32.879066 63.822853,33.694691 
	C63.410866,34.370640 62.999222,34.496155 62.270851,34.231651 
z"/>
<path fill="#363636" opacity="1.000000" stroke="none" 
	d="
M34.612579,33.305870 
	C35.079815,32.681892 35.631615,32.328342 36.503891,31.901457 
	C39.702801,29.705666 42.454731,28.442804 44.420368,33.360527 
	C44.436459,34.730961 43.919495,35.347088 42.700878,35.857410 
	C41.478794,36.016018 40.674225,36.192101 39.452599,36.287285 
	C37.648151,36.180836 36.442635,35.657768 35.162891,34.376312 
	C34.803223,33.938873 34.750179,33.757584 34.612579,33.305870 
z"/>
<path fill="#7C7C7C" opacity="1.000000" stroke="none" 
	d="
M33.258987,38.192833 
	C31.396532,36.298912 32.861740,35.707333 34.383282,34.967190 
	C36.033306,34.944782 37.296688,35.494991 38.987556,35.800140 
	C39.772648,36.762951 39.819607,37.542454 39.254902,38.683472 
	C39.022984,39.020592 39.000000,39.000153 39.010521,39.011559 
	C38.505619,39.517982 37.899109,39.803741 36.840736,39.786903 
	C35.460602,39.402790 34.644577,38.566742 33.258987,38.192833 
z"/>
<path fill="#707070" opacity="1.000000" stroke="none" 
	d="
M35.690186,39.183281 
	C36.760513,39.007900 37.513721,39.007210 38.643986,39.014744 
	C39.057163,40.867798 37.640400,41.612949 36.195938,42.745926 
	C35.816814,43.000267 35.638996,42.998184 35.193615,42.991871 
	C34.962723,42.240532 34.999390,41.493427 35.035152,40.372116 
	C35.147186,39.784599 35.260124,39.571281 35.690186,39.183281 
z"/>
<path fill="#838383" opacity="1.000000" stroke="none" 
	d="
M35.961761,38.709244 
	C35.895092,39.315880 35.710464,39.570690 35.243835,39.885468 
	C34.126999,39.922478 33.338291,39.675804 33.037323,38.332611 
	C34.020863,37.716862 35.191284,36.413261 35.961761,38.709244 
z"/>
<path fill="#5D5D5D" opacity="1.000000" stroke="none" 
	d="
M39.139114,35.983784 
	C37.741898,35.934555 36.512081,35.669262 34.981743,35.155739 
	C34.681217,34.907513 34.775394,34.514145 34.815834,34.317154 
	C36.035339,34.429489 37.214405,34.738815 38.745956,35.155182 
	C39.167797,35.430717 39.237156,35.599220 39.139114,35.983784 
z"/>
<path fill="#333333" opacity="1.000000" stroke="none" 
	d="
M68.017494,25.868332 
	C68.432060,26.230085 68.595749,26.789524 68.452423,27.667023 
	C67.150856,27.516777 66.998688,26.882202 68.017494,25.868332 
z"/>
<path fill="#525252" opacity="1.000000" stroke="none" 
	d="
M64.123863,47.287411 
	C65.115288,47.083580 65.745842,47.507504 66.002556,48.717155 
	C65.841537,49.918301 65.519989,50.720737 64.089897,50.812607 
	C63.833138,49.755447 63.911186,48.707882 64.123863,47.287411 
z"/>
<path fill="#B9B9B9" opacity="1.000000" stroke="none" 
	d="
M61.827744,34.249020 
	C62.398716,34.018703 62.786587,34.024147 63.465424,34.037312 
	C64.025101,34.845631 64.293808,35.646221 64.735184,36.718670 
	C65.077087,37.791298 65.311424,38.589081 64.956467,39.712051 
	C64.691673,40.826607 64.489571,41.640194 64.116112,42.715656 
	C63.515011,42.981987 63.085270,42.986443 62.333031,42.993034 
	C61.372040,42.418629 60.516518,42.145138 59.714481,41.248905 
	C59.002354,40.247723 58.690208,39.412556 58.289001,38.243839 
	C58.112701,37.454575 58.097862,36.992958 58.229839,36.189682 
	C58.451187,35.653931 58.580330,35.457664 59.051456,35.176285 
	C60.143845,34.889046 60.894249,34.686913 61.827744,34.249020 
z"/>
<path fill="#666666" opacity="1.000000" stroke="none" 
	d="
M56.369946,48.207581 
	C54.785809,46.536434 53.511906,45.094170 52.098389,43.360371 
	C51.969063,42.292709 51.979347,41.516586 51.992348,40.353287 
	C51.800953,38.602997 51.318428,37.252167 52.108852,35.640831 
	C53.103333,35.141842 53.818497,35.127396 54.861588,35.529129 
	C55.683460,36.279030 55.903698,36.961346 56.013161,38.045853 
	C55.828899,41.126133 55.931980,43.734192 59.024700,45.481087 
	C59.363129,45.932980 59.460411,46.140926 59.525703,46.691750 
	C59.208832,47.288017 58.923954,47.541409 58.377357,47.913723 
	C57.693752,48.368446 57.215271,48.503075 56.369946,48.207581 
z"/>
<path fill="#939393" opacity="1.000000" stroke="none" 
	d="
M59.775127,46.928375 
	C59.416691,46.877327 59.339664,46.720024 59.198944,46.307838 
	C58.545937,45.681789 58.230457,45.138596 58.131645,44.130600 
	C58.218044,43.146851 58.450027,42.540363 58.946640,41.694221 
	C59.285736,41.278324 59.443321,41.130764 59.911972,40.893211 
	C61.073841,41.023285 61.703892,41.479156 61.961594,42.690098 
	C61.359203,44.270821 60.707874,45.546474 59.775127,46.928375 
z"/>
<path fill="#666666" opacity="1.000000" stroke="none" 
	d="
M53.182854,50.721298 
	C52.904125,50.192329 52.920925,49.838017 52.915581,49.215126 
	C53.663368,48.972591 54.433308,48.998631 55.586433,49.002716 
	C56.179169,48.830967 56.388710,48.681179 56.873634,48.802383 
	C56.937489,49.818233 56.725956,50.563095 56.292137,51.481392 
	C55.206032,51.401875 54.342213,51.148914 53.182854,50.721298 
z"/>
<path fill="#5D5D5D" opacity="1.000000" stroke="none" 
	d="
M57.364250,48.957043 
	C56.952805,49.055138 56.756584,49.036896 56.264999,48.999706 
	C55.982876,48.813709 55.996120,48.646656 56.034538,48.229153 
	C56.515652,47.987507 56.971592,47.996311 57.771587,48.018883 
	C58.020817,48.357693 57.842094,48.627048 57.364250,48.957043 
z"/>
<path fill="#939393" opacity="1.000000" stroke="none" 
	d="
M49.546146,58.846878 
	C49.153873,58.416344 49.110245,58.006145 49.045471,57.285469 
	C49.321667,55.547974 49.618999,54.120956 49.944702,52.325459 
	C50.448063,51.660969 50.923050,51.364960 51.662010,50.976448 
	C51.981712,53.082211 50.713463,55.476742 52.937340,57.697403 
	C52.712971,58.187057 52.462749,58.374321 52.118950,58.798050 
	C51.298302,58.956196 50.596546,58.911709 49.546146,58.846878 
z"/>
<path fill="#7C7C7C" opacity="1.000000" stroke="none" 
	d="
M41.824089,35.537849 
	C42.514278,34.989342 42.968067,34.687443 43.559704,34.148312 
	C43.917091,33.779381 44.136635,33.647690 44.738319,33.464104 
	C46.180454,33.493103 47.128681,33.860851 48.193367,34.831627 
	C48.580921,35.651375 48.568348,36.155067 48.075356,36.883659 
	C46.058620,38.987625 44.292336,40.282288 42.070053,37.333569 
	C41.644562,36.662022 41.514557,36.258934 41.824089,35.537849 
z"/>
<path fill="#A9A9A9" opacity="1.000000" stroke="none" 
	d="
M48.080280,37.229343 
	C47.804752,36.649002 47.843422,36.185059 47.868752,35.372391 
	C47.767727,34.535351 47.910480,34.137547 48.663475,33.894356 
	C49.528030,34.224373 50.047852,34.504066 50.859020,34.830902 
	C51.490822,34.961403 51.782276,35.131416 52.147533,35.606575 
	C52.317192,37.015884 53.356014,38.213959 52.095200,39.667801 
	C50.794868,39.092659 49.594673,38.219200 48.080280,37.229343 
z"/>
<path fill="#707070" opacity="1.000000" stroke="none" 
	d="
M45.891724,42.607697 
	C44.159752,43.641884 42.376598,44.363094 40.210678,45.092804 
	C40.741474,41.829239 42.738106,40.877487 45.891724,42.607697 
z"/>
<path fill="#707070" opacity="1.000000" stroke="none" 
	d="
M41.692509,35.222782 
	C42.048206,35.666355 42.035927,36.041473 42.016220,36.699696 
	C41.219078,37.629986 40.429359,38.277172 39.331314,38.972473 
	C39.009583,38.312824 38.996178,37.605053 38.977242,36.548569 
	C38.971714,36.199848 39.036663,35.728725 39.067551,35.495468 
	C39.840466,35.226254 40.582497,35.190289 41.692509,35.222782 
z"/>
<path fill="#838383" opacity="1.000000" stroke="none" 
	d="
M52.364639,48.638435 
	C49.374374,48.981144 46.224216,48.959034 42.630211,48.945488 
	C44.043377,45.058750 47.587486,44.818039 52.364639,48.638435 
z"/>
<path fill="#B3B3B3" opacity="1.000000" stroke="none" 
	d="
M15.366875,51.989113 
	C14.900311,50.144985 13.252969,48.433861 14.776793,46.239212 
	C15.049222,46.013176 15.081309,46.501198 15.084594,46.745712 
	C15.229011,47.165630 15.370143,47.341042 15.758155,47.746887 
	C17.425455,48.148579 18.052361,48.951736 17.874823,50.364349 
	C17.716972,51.620327 16.817844,51.928410 15.366875,51.989113 
z"/>
<path fill="#9C9C9C" opacity="1.000000" stroke="none" 
	d="
M15.898592,47.772820 
	C15.686311,47.889091 15.434896,47.707649 15.169333,47.211609 
	C15.375726,47.118252 15.610483,47.310951 15.898592,47.772820 
z"/>
<path fill="#474747" opacity="1.000000" stroke="none" 
	d="
M65.241379,39.978745 
	C64.247612,39.215836 64.220383,38.334690 64.724014,37.198498 
	C65.916756,37.138802 67.398567,36.591118 67.524826,38.213356 
	C67.607674,39.277763 66.560692,39.718864 65.241379,39.978745 
z"/>
<path fill="#474747" opacity="1.000000" stroke="none" 
	d="
M72.780304,46.158630 
	C73.704735,46.390945 73.923744,46.943371 73.384445,47.862957 
	C72.446968,47.667252 72.022919,47.172298 72.780304,46.158630 
z"/>
<path fill="#474747" opacity="1.000000" stroke="none" 
	d="
M71.904816,41.112427 
	C72.360718,41.482445 72.584297,41.995239 72.730141,42.796272 
	C71.751076,42.782589 70.904739,42.451206 71.904816,41.112427 
z"/>
<path fill="#7C7C7C" opacity="1.000000" stroke="none" 
	d="
M75.278152,60.289185 
	C76.237122,60.171719 76.828407,60.647289 76.898918,61.929569 
	C76.102333,61.928722 75.246895,61.679638 75.278152,60.289185 
z"/>
<path fill="#363636" opacity="1.000000" stroke="none" 
	d="
M52.602638,35.832184 
	C51.972740,35.667271 51.681812,35.497677 51.270622,35.103058 
	C51.170441,34.206154 51.190510,33.534271 51.220688,32.525139 
	C52.608788,30.538105 54.218521,29.550737 56.832047,30.565088 
	C58.080673,31.858013 59.539921,32.620308 59.300877,34.733768 
	C59.393444,35.091179 59.043816,35.406956 58.902214,35.595207 
	C57.930092,36.878727 56.870037,36.961376 55.332668,36.226089 
	C54.302483,35.923161 53.622044,35.875332 52.602638,35.832184 
z"/>
<path fill="#525252" opacity="1.000000" stroke="none" 
	d="
M45.099201,33.591331 
	C44.643650,33.850113 44.455753,33.871498 43.982704,33.901978 
	C42.666065,30.248274 40.176788,30.919693 37.210838,31.843704 
	C37.208157,30.775406 37.591946,29.722691 37.994499,28.331053 
	C40.037117,28.318171 42.060966,28.644213 44.466812,28.953718 
	C44.863010,29.103462 44.877209,29.269741 44.878414,29.686008 
	C45.241516,31.044655 45.943314,32.105530 45.099201,33.591331 
z"/>
<path fill="#838383" opacity="1.000000" stroke="none" 
	d="
M45.050484,34.098335 
	C45.089291,32.617916 43.678349,31.606874 44.639576,30.137436 
	C46.941544,30.163599 48.285309,31.282345 48.963058,33.605556 
	C48.728485,34.159634 48.448761,34.374592 48.012230,34.806602 
	C46.993420,34.805088 46.131424,34.586514 45.050484,34.098335 
z"/>
<path fill="#5D5D5D" opacity="1.000000" stroke="none" 
	d="
M57.179340,30.443806 
	C55.414616,31.002842 53.565254,30.984747 51.585526,32.073990 
	C51.155754,31.706198 51.080715,31.224510 50.996399,30.378094 
	C52.806400,29.380646 54.625675,28.747931 56.815109,28.133263 
	C57.173927,28.806564 57.162590,29.461815 57.179340,30.443806 
z"/>
<path fill="#5D5D5D" opacity="1.000000" stroke="none" 
	d="
M49.685745,28.103550 
	C49.947674,28.366980 49.997993,28.793209 50.089813,29.536581 
	C49.297935,29.578930 49.016975,29.075434 49.685745,28.103550 
z"/>
<path fill="#7C7C7C" opacity="1.000000" stroke="none" 
	d="
M54.997208,36.342392 
	C55.991581,35.907063 57.000240,35.843128 58.384758,35.781326 
	C58.807659,36.278938 58.854706,36.774414 58.887253,37.644402 
	C58.923534,38.738575 58.758183,39.393745 58.010979,40.166428 
	C56.714344,40.734787 55.906212,40.426395 55.153694,39.276947 
	C55.039898,38.198639 55.025692,37.456215 54.997208,36.342392 
z"/>
<path fill="#939393" opacity="1.000000" stroke="none" 
	d="
M58.362114,40.549934 
	C58.134415,39.480556 58.292458,38.938278 58.661629,38.207458 
	C59.781845,38.453278 59.927868,39.316555 60.153595,40.488640 
	C60.223042,40.803211 60.106834,40.902599 60.050026,40.953766 
	C59.591431,41.259262 59.175644,41.271725 58.362114,40.549934 
z"/>
<path fill="#5D5D5D" opacity="1.000000" stroke="none" 
	d="
M54.804440,39.173805 
	C55.819401,39.279835 56.584705,39.618599 57.663193,39.990097 
	C57.976376,40.022835 57.989769,40.004284 57.983299,40.010727 
	C58.596054,40.673748 58.814014,41.511345 59.087254,42.669327 
	C59.156654,43.754158 59.168102,44.519814 59.157394,45.669212 
	C54.226601,46.168110 54.923412,42.420193 54.804440,39.173805 
z"/>
<path fill="#7C7C7C" opacity="1.000000" stroke="none" 
	d="
M59.357342,42.803875 
	C58.183754,42.518452 58.025650,41.638058 57.976978,40.359428 
	C58.478539,40.268482 58.980244,40.519798 59.737583,40.888023 
	C59.851971,41.543037 59.710724,42.081142 59.357342,42.803875 
z"/>
</svg>